<svg width="168" height="120" viewBox="0 0 168 120" fill="none" xmlns="http://www.w3.org/2000/svg">
<path d="M31.2859 22.728V17.64H40.1499V41H34.4539V22.728H31.2859ZM44.0851 24.232C44.1705 21.9493 44.9171 20.1893 46.3251 18.952C47.7331 17.7147 49.6425 17.096 52.0531 17.096C53.6531 17.096 55.0185 17.3733 56.1491 17.928C57.3011 18.4827 58.1651 19.24 58.7411 20.2C59.3385 21.16 59.6371 22.2373 59.6371 23.432C59.6371 24.84 59.2851 25.992 58.5811 26.888C57.8771 27.7627 57.0558 28.36 56.1171 28.68V28.808C57.3331 29.2133 58.2931 29.8853 58.9971 30.824C59.7011 31.7627 60.0531 32.968 60.0531 34.44C60.0531 35.7627 59.7438 36.936 59.1251 37.96C58.5278 38.9627 57.6425 39.752 56.4691 40.328C55.3171 40.904 53.9411 41.192 52.3411 41.192C49.7811 41.192 47.7331 40.5627 46.1971 39.304C44.6825 38.0453 43.8825 36.1467 43.7971 33.608H49.1091C49.1305 34.5467 49.3971 35.2933 49.9091 35.848C50.4211 36.3813 51.1678 36.648 52.1491 36.648C52.9811 36.648 53.6211 36.4133 54.0691 35.944C54.5385 35.4533 54.7731 34.8133 54.7731 34.024C54.7731 33 54.4425 32.264 53.7811 31.816C53.1411 31.3467 52.1065 31.112 50.6771 31.112H49.6531V26.664H50.6771C51.7651 26.664 52.6398 26.4827 53.3011 26.12C53.9838 25.736 54.3251 25.064 54.3251 24.104C54.3251 23.336 54.1118 22.7387 53.6851 22.312C53.2585 21.8853 52.6718 21.672 51.9251 21.672C51.1145 21.672 50.5065 21.9173 50.1011 22.408C49.7171 22.8987 49.4931 23.5067 49.4291 24.232H44.0851ZM63.2681 29C63.2681 25.3307 63.9721 22.44 65.3801 20.328C66.8095 18.216 69.1028 17.16 72.2601 17.16C75.4175 17.16 77.7001 18.216 79.1081 20.328C80.5375 22.44 81.2521 25.3307 81.2521 29C81.2521 32.712 80.5375 35.624 79.1081 37.736C77.7001 39.848 75.4175 40.904 72.2601 40.904C69.1028 40.904 66.8095 39.848 65.3801 37.736C63.9721 35.624 63.2681 32.712 63.2681 29ZM75.8761 29C75.8761 26.8453 75.6415 25.192 75.1721 24.04C74.7028 22.8667 73.7321 22.28 72.2601 22.28C70.7881 22.28 69.8175 22.8667 69.3481 24.04C68.8788 25.192 68.6441 26.8453 68.6441 29C68.6441 30.4507 68.7295 31.656 68.9001 32.616C69.0708 33.5547 69.4121 34.3227 69.9241 34.92C70.4575 35.496 71.2361 35.784 72.2601 35.784C73.2841 35.784 74.0521 35.496 74.5641 34.92C75.0975 34.3227 75.4495 33.5547 75.6201 32.616C75.7908 31.656 75.8761 30.4507 75.8761 29ZM84.1431 29C84.1431 25.3307 84.8471 22.44 86.2551 20.328C87.6845 18.216 89.9778 17.16 93.1351 17.16C96.2925 17.16 98.5751 18.216 99.9831 20.328C101.412 22.44 102.127 25.3307 102.127 29C102.127 32.712 101.412 35.624 99.9831 37.736C98.5751 39.848 96.2925 40.904 93.1351 40.904C89.9778 40.904 87.6845 39.848 86.2551 37.736C84.8471 35.624 84.1431 32.712 84.1431 29ZM96.7511 29C96.7511 26.8453 96.5165 25.192 96.0471 24.04C95.5778 22.8667 94.6071 22.28 93.1351 22.28C91.6631 22.28 90.6925 22.8667 90.2231 24.04C89.7538 25.192 89.5191 26.8453 89.5191 29C89.5191 30.4507 89.6045 31.656 89.7751 32.616C89.9458 33.5547 90.2871 34.3227 90.7991 34.92C91.3325 35.496 92.1111 35.784 93.1351 35.784C94.1591 35.784 94.9271 35.496 95.4391 34.92C95.9725 34.3227 96.3245 33.5547 96.4951 32.616C96.6658 31.656 96.7511 30.4507 96.7511 29Z" fill="white"/>
<path d="M48.0548 81.272L41.7428 98H39.2228L32.9108 81.272H35.2388L40.4948 95.696L45.7508 81.272H48.0548ZM51.5776 82.712C51.1616 82.712 50.8096 82.568 50.5216 82.28C50.2336 81.992 50.0896 81.64 50.0896 81.224C50.0896 80.808 50.2336 80.456 50.5216 80.168C50.8096 79.88 51.1616 79.736 51.5776 79.736C51.9776 79.736 52.3136 79.88 52.5856 80.168C52.8736 80.456 53.0176 80.808 53.0176 81.224C53.0176 81.64 52.8736 81.992 52.5856 82.28C52.3136 82.568 51.9776 82.712 51.5776 82.712ZM52.6336 84.848V98H50.4496V84.848H52.6336ZM68.3558 90.92C68.3558 91.336 68.3318 91.776 68.2838 92.24H57.7718C57.8518 93.536 58.2918 94.552 59.0918 95.288C59.9078 96.008 60.8918 96.368 62.0438 96.368C62.9878 96.368 63.7718 96.152 64.3958 95.72C65.0358 95.272 65.4838 94.68 65.7398 93.944H68.0918C67.7398 95.208 67.0358 96.24 65.9798 97.04C64.9238 97.824 63.6118 98.216 62.0438 98.216C60.7958 98.216 59.6758 97.936 58.6838 97.376C57.7078 96.816 56.9398 96.024 56.3798 95C55.8198 93.96 55.5398 92.76 55.5398 91.4C55.5398 90.04 55.8118 88.848 56.3558 87.824C56.8998 86.8 57.6598 86.016 58.6358 85.472C59.6278 84.912 60.7638 84.632 62.0438 84.632C63.2918 84.632 64.3958 84.904 65.3558 85.448C66.3158 85.992 67.0518 86.744 67.5638 87.704C68.0918 88.648 68.3558 89.72 68.3558 90.92ZM66.0998 90.464C66.0998 89.632 65.9158 88.92 65.5478 88.328C65.1798 87.72 64.6758 87.264 64.0358 86.96C63.4118 86.64 62.7158 86.48 61.9478 86.48C60.8438 86.48 59.8998 86.832 59.1158 87.536C58.3478 88.24 57.9078 89.216 57.7958 90.464H66.0998ZM88.7586 84.848L84.6546 98H82.3986L79.2306 87.56L76.0626 98H73.8066L69.6786 84.848H71.9106L74.9346 95.888L78.1986 84.848H80.4306L83.6226 95.912L86.5986 84.848H88.7586ZM95.5821 98.216C94.5741 98.216 93.6701 98.048 92.8701 97.712C92.0701 97.36 91.4381 96.88 90.9741 96.272C90.5101 95.648 90.2541 94.936 90.2061 94.136H92.4621C92.5261 94.792 92.8301 95.328 93.3741 95.744C93.9341 96.16 94.6621 96.368 95.5581 96.368C96.3901 96.368 97.0461 96.184 97.5261 95.816C98.0061 95.448 98.2461 94.984 98.2461 94.424C98.2461 93.848 97.9901 93.424 97.4781 93.152C96.9661 92.864 96.1741 92.584 95.1021 92.312C94.1261 92.056 93.3261 91.8 92.7021 91.544C92.0941 91.272 91.5661 90.88 91.1181 90.368C90.6861 89.84 90.4701 89.152 90.4701 88.304C90.4701 87.632 90.6701 87.016 91.0701 86.456C91.4701 85.896 92.0381 85.456 92.7741 85.136C93.5101 84.8 94.3501 84.632 95.2941 84.632C96.7501 84.632 97.9261 85 98.8221 85.736C99.7181 86.472 100.198 87.48 100.262 88.76H98.0781C98.0301 88.072 97.7501 87.52 97.2381 87.104C96.7421 86.688 96.0701 86.48 95.2221 86.48C94.4381 86.48 93.8141 86.648 93.3501 86.984C92.8861 87.32 92.6541 87.76 92.6541 88.304C92.6541 88.736 92.7901 89.096 93.0621 89.384C93.3501 89.656 93.7021 89.88 94.1181 90.056C94.5501 90.216 95.1421 90.4 95.8941 90.608C96.8381 90.864 97.6061 91.12 98.1981 91.376C98.7901 91.616 99.2941 91.984 99.7101 92.48C100.142 92.976 100.366 93.624 100.382 94.424C100.382 95.144 100.182 95.792 99.7821 96.368C99.3821 96.944 98.8141 97.4 98.0781 97.736C97.3581 98.056 96.5261 98.216 95.5821 98.216Z" fill="white"/>
<line x1="167" y1="100" x2="167" y2="20" stroke="white" stroke-width="2"/>
</svg>
