<svg width="1903" height="69" viewBox="0 0 1903 69" fill="none" xmlns="http://www.w3.org/2000/svg">
<g filter="url(#filter0_i_32_2878)">
<rect width="1920" height="69" transform="translate(-17)" fill="#010314"/>
<path d="M188.558 29.144C189.501 29.144 190.341 29.3587 191.078 29.788C191.815 30.208 192.385 30.796 192.786 31.552C193.197 32.2987 193.402 33.1527 193.402 34.114C193.402 35.0753 193.197 35.934 192.786 36.69C192.385 37.4367 191.815 38.0247 191.078 38.454C190.341 38.874 189.501 39.084 188.558 39.084C187.606 39.084 186.761 38.874 186.024 38.454C185.287 38.0247 184.713 37.4367 184.302 36.69C183.891 35.934 183.686 35.0753 183.686 34.114C183.686 33.1527 183.891 32.2987 184.302 31.552C184.713 30.796 185.287 30.208 186.024 29.788C186.761 29.3587 187.606 29.144 188.558 29.144ZM188.558 29.704C187.69 29.704 186.934 29.8907 186.29 30.264C185.646 30.628 185.151 31.1413 184.806 31.804C184.461 32.4667 184.288 33.2367 184.288 34.114C184.288 34.982 184.461 35.752 184.806 36.424C185.151 37.0867 185.646 37.6047 186.29 37.978C186.934 38.3513 187.69 38.538 188.558 38.538C189.417 38.538 190.163 38.3513 190.798 37.978C191.442 37.6047 191.937 37.0867 192.282 36.424C192.627 35.752 192.8 34.982 192.8 34.114C192.8 33.2367 192.627 32.4667 192.282 31.804C191.937 31.1413 191.442 30.628 190.798 30.264C190.163 29.8907 189.417 29.704 188.558 29.704ZM188.53 30.866C187.97 30.866 187.457 30.9967 186.99 31.258C186.533 31.5193 186.169 31.8973 185.898 32.392C185.627 32.8773 185.492 33.4467 185.492 34.1C185.492 34.7533 185.627 35.3273 185.898 35.822C186.169 36.3073 186.533 36.6853 186.99 36.956C187.457 37.2173 187.97 37.348 188.53 37.348C189.23 37.348 189.837 37.1613 190.35 36.788C190.863 36.4053 191.213 35.8967 191.4 35.262H190.224C189.944 36.0367 189.379 36.424 188.53 36.424C187.97 36.424 187.513 36.2233 187.158 35.822C186.803 35.4207 186.626 34.8513 186.626 34.114C186.626 33.3673 186.803 32.7933 187.158 32.392C187.513 31.9907 187.97 31.79 188.53 31.79C188.941 31.79 189.295 31.8927 189.594 32.098C189.893 32.294 190.103 32.5787 190.224 32.952H191.4C191.223 32.2893 190.877 31.776 190.364 31.412C189.851 31.048 189.239 30.866 188.53 30.866ZM198.534 37.978C199.72 37.026 200.648 36.2467 201.32 35.64C201.992 35.024 202.557 34.3847 203.014 33.722C203.481 33.05 203.714 32.392 203.714 31.748C203.714 31.1413 203.565 30.6653 203.266 30.32C202.977 29.9653 202.506 29.788 201.852 29.788C201.218 29.788 200.723 29.9887 200.368 30.39C200.023 30.782 199.836 31.3093 199.808 31.972H198.576C198.614 30.9267 198.931 30.1193 199.528 29.55C200.126 28.9807 200.896 28.696 201.838 28.696C202.8 28.696 203.56 28.962 204.12 29.494C204.69 30.026 204.974 30.7587 204.974 31.692C204.974 32.4667 204.741 33.2227 204.274 33.96C203.817 34.688 203.294 35.332 202.706 35.892C202.118 36.4427 201.367 37.0867 200.452 37.824H205.268V38.888H198.534V37.978ZM206.741 33.834C206.741 32.2287 207.002 30.978 207.525 30.082C208.048 29.1767 208.962 28.724 210.269 28.724C211.566 28.724 212.476 29.1767 212.999 30.082C213.522 30.978 213.783 32.2287 213.783 33.834C213.783 35.4673 213.522 36.7367 212.999 37.642C212.476 38.5473 211.566 39 210.269 39C208.962 39 208.048 38.5473 207.525 37.642C207.002 36.7367 206.741 35.4673 206.741 33.834ZM212.523 33.834C212.523 33.022 212.467 32.336 212.355 31.776C212.252 31.2067 212.033 30.7493 211.697 30.404C211.37 30.0587 210.894 29.886 210.269 29.886C209.634 29.886 209.149 30.0587 208.813 30.404C208.486 30.7493 208.267 31.2067 208.155 31.776C208.052 32.336 208.001 33.022 208.001 33.834C208.001 34.674 208.052 35.3787 208.155 35.948C208.267 36.5173 208.486 36.9747 208.813 37.32C209.149 37.6653 209.634 37.838 210.269 37.838C210.894 37.838 211.37 37.6653 211.697 37.32C212.033 36.9747 212.252 36.5173 212.355 35.948C212.467 35.3787 212.523 34.674 212.523 33.834ZM215.378 37.978C216.563 37.026 217.492 36.2467 218.164 35.64C218.836 35.024 219.401 34.3847 219.858 33.722C220.325 33.05 220.558 32.392 220.558 31.748C220.558 31.1413 220.409 30.6653 220.11 30.32C219.821 29.9653 219.349 29.788 218.696 29.788C218.061 29.788 217.567 29.9887 217.212 30.39C216.867 30.782 216.68 31.3093 216.652 31.972H215.42C215.457 30.9267 215.775 30.1193 216.372 29.55C216.969 28.9807 217.739 28.696 218.682 28.696C219.643 28.696 220.404 28.962 220.964 29.494C221.533 30.026 221.818 30.7587 221.818 31.692C221.818 32.4667 221.585 33.2227 221.118 33.96C220.661 34.688 220.138 35.332 219.55 35.892C218.962 36.4427 218.211 37.0867 217.296 37.824H222.112V38.888H215.378V37.978ZM223.277 36.746V35.78L228.191 28.976H229.717V35.64H231.117V36.746H229.717V39H228.457V36.746H223.277ZM228.513 30.306L224.747 35.64H228.513V30.306ZM235.856 34.114C235.856 33.162 236.071 32.308 236.5 31.552C236.929 30.7867 237.513 30.1893 238.25 29.76C238.997 29.3307 239.823 29.116 240.728 29.116C241.792 29.116 242.721 29.3727 243.514 29.886C244.307 30.3993 244.886 31.1273 245.25 32.07H243.724C243.453 31.482 243.061 31.0293 242.548 30.712C242.044 30.3947 241.437 30.236 240.728 30.236C240.047 30.236 239.435 30.3947 238.894 30.712C238.353 31.0293 237.928 31.482 237.62 32.07C237.312 32.6487 237.158 33.33 237.158 34.114C237.158 34.8887 237.312 35.57 237.62 36.158C237.928 36.7367 238.353 37.1847 238.894 37.502C239.435 37.8193 240.047 37.978 240.728 37.978C241.437 37.978 242.044 37.824 242.548 37.516C243.061 37.1987 243.453 36.746 243.724 36.158H245.25C244.886 37.0913 244.307 37.8147 243.514 38.328C242.721 38.832 241.792 39.084 240.728 39.084C239.823 39.084 238.997 38.874 238.25 38.454C237.513 38.0247 236.929 37.432 236.5 36.676C236.071 35.92 235.856 35.066 235.856 34.114ZM248.42 28.64V39H247.146V28.64H248.42ZM251.25 30.082C251.007 30.082 250.802 29.998 250.634 29.83C250.466 29.662 250.382 29.4567 250.382 29.214C250.382 28.9713 250.466 28.766 250.634 28.598C250.802 28.43 251.007 28.346 251.25 28.346C251.483 28.346 251.679 28.43 251.838 28.598C252.006 28.766 252.09 28.9713 252.09 29.214C252.09 29.4567 252.006 29.662 251.838 29.83C251.679 29.998 251.483 30.082 251.25 30.082ZM251.866 31.328V39H250.592V31.328H251.866ZM253.561 35.15C253.561 34.3567 253.72 33.666 254.037 33.078C254.354 32.4807 254.793 32.0187 255.353 31.692C255.922 31.3653 256.571 31.202 257.299 31.202C258.242 31.202 259.016 31.4307 259.623 31.888C260.239 32.3453 260.645 32.98 260.841 33.792H259.469C259.338 33.3253 259.082 32.9567 258.699 32.686C258.326 32.4153 257.859 32.28 257.299 32.28C256.571 32.28 255.983 32.532 255.535 33.036C255.087 33.5307 254.863 34.2353 254.863 35.15C254.863 36.074 255.087 36.788 255.535 37.292C255.983 37.796 256.571 38.048 257.299 38.048C257.859 38.048 258.326 37.9173 258.699 37.656C259.072 37.3947 259.329 37.0213 259.469 36.536H260.841C260.636 37.32 260.225 37.95 259.609 38.426C258.993 38.8927 258.223 39.126 257.299 39.126C256.571 39.126 255.922 38.9627 255.353 38.636C254.793 38.3093 254.354 37.8473 254.037 37.25C253.72 36.6527 253.561 35.9527 253.561 35.15ZM266.825 39L263.815 35.612V39H262.541V28.64H263.815V34.73L266.769 31.328H268.547L264.935 35.15L268.561 39H266.825ZM273.002 34.114C273.002 33.162 273.217 32.308 273.646 31.552C274.076 30.7867 274.659 30.1893 275.396 29.76C276.143 29.3307 276.969 29.116 277.874 29.116C278.938 29.116 279.867 29.3727 280.66 29.886C281.454 30.3993 282.032 31.1273 282.396 32.07H280.87C280.6 31.482 280.208 31.0293 279.694 30.712C279.19 30.3947 278.584 30.236 277.874 30.236C277.193 30.236 276.582 30.3947 276.04 30.712C275.499 31.0293 275.074 31.482 274.766 32.07C274.458 32.6487 274.304 33.33 274.304 34.114C274.304 34.8887 274.458 35.57 274.766 36.158C275.074 36.7367 275.499 37.1847 276.04 37.502C276.582 37.8193 277.193 37.978 277.874 37.978C278.584 37.978 279.19 37.824 279.694 37.516C280.208 37.1987 280.6 36.746 280.87 36.158H282.396C282.032 37.0913 281.454 37.8147 280.66 38.328C279.867 38.832 278.938 39.084 277.874 39.084C276.969 39.084 276.143 38.874 275.396 38.454C274.659 38.0247 274.076 37.432 273.646 36.676C273.217 35.92 273.002 35.066 273.002 34.114ZM285.567 32.574C285.791 32.1353 286.108 31.7947 286.519 31.552C286.939 31.3093 287.448 31.188 288.045 31.188V32.504H287.709C286.281 32.504 285.567 33.2787 285.567 34.828V39H284.293V31.328H285.567V32.574ZM289.04 35.136C289.04 34.352 289.198 33.666 289.516 33.078C289.833 32.4807 290.267 32.0187 290.818 31.692C291.378 31.3653 291.998 31.202 292.68 31.202C293.352 31.202 293.935 31.3467 294.43 31.636C294.924 31.9253 295.293 32.2893 295.536 32.728V31.328H296.824V39H295.536V37.572C295.284 38.02 294.906 38.3933 294.402 38.692C293.907 38.9813 293.328 39.126 292.666 39.126C291.984 39.126 291.368 38.958 290.818 38.622C290.267 38.286 289.833 37.8147 289.516 37.208C289.198 36.6013 289.04 35.9107 289.04 35.136ZM295.536 35.15C295.536 34.5713 295.419 34.0673 295.186 33.638C294.952 33.2087 294.635 32.882 294.234 32.658C293.842 32.4247 293.408 32.308 292.932 32.308C292.456 32.308 292.022 32.42 291.63 32.644C291.238 32.868 290.925 33.1947 290.692 33.624C290.458 34.0533 290.342 34.5573 290.342 35.136C290.342 35.724 290.458 36.2373 290.692 36.676C290.925 37.1053 291.238 37.4367 291.63 37.67C292.022 37.894 292.456 38.006 292.932 38.006C293.408 38.006 293.842 37.894 294.234 37.67C294.635 37.4367 294.952 37.1053 295.186 36.676C295.419 36.2373 295.536 35.7287 295.536 35.15ZM302.098 32.378H300.488V39H299.214V32.378H298.22V31.328H299.214V30.782C299.214 29.9233 299.434 29.298 299.872 28.906C300.32 28.5047 301.034 28.304 302.014 28.304V29.368C301.454 29.368 301.058 29.48 300.824 29.704C300.6 29.9187 300.488 30.278 300.488 30.782V31.328H302.098V32.378ZM305.138 32.378V36.9C305.138 37.2733 305.217 37.5393 305.376 37.698C305.535 37.8473 305.81 37.922 306.202 37.922H307.14V39H305.992C305.283 39 304.751 38.8367 304.396 38.51C304.041 38.1833 303.864 37.6467 303.864 36.9V32.378H302.87V31.328H303.864V29.396H305.138V31.328H307.14V32.378H305.138ZM309.089 39.084C308.847 39.084 308.641 39 308.473 38.832C308.305 38.664 308.221 38.4587 308.221 38.216C308.221 37.9733 308.305 37.768 308.473 37.6C308.641 37.432 308.847 37.348 309.089 37.348C309.323 37.348 309.519 37.432 309.677 37.6C309.845 37.768 309.929 37.9733 309.929 38.216C309.929 38.4587 309.845 38.664 309.677 38.832C309.519 39 309.323 39.084 309.089 39.084ZM321.123 36.83H316.867L316.083 39H314.739L318.267 29.298H319.737L323.251 39H321.907L321.123 36.83ZM320.759 35.794L318.995 30.866L317.231 35.794H320.759ZM326.063 28.64V39H324.789V28.64H326.063ZM329.508 28.64V39H328.234V28.64H329.508ZM336.686 32.574C336.91 32.1353 337.227 31.7947 337.638 31.552C338.058 31.3093 338.567 31.188 339.164 31.188V32.504H338.828C337.4 32.504 336.686 33.2787 336.686 34.828V39H335.412V31.328H336.686V32.574ZM341.293 30.082C341.05 30.082 340.845 29.998 340.677 29.83C340.509 29.662 340.425 29.4567 340.425 29.214C340.425 28.9713 340.509 28.766 340.677 28.598C340.845 28.43 341.05 28.346 341.293 28.346C341.526 28.346 341.722 28.43 341.881 28.598C342.049 28.766 342.133 28.9713 342.133 29.214C342.133 29.4567 342.049 29.662 341.881 29.83C341.722 29.998 341.526 30.082 341.293 30.082ZM341.909 31.328V39H340.635V31.328H341.909ZM347.244 31.202C347.907 31.202 348.485 31.3467 348.98 31.636C349.484 31.9253 349.857 32.2893 350.1 32.728V31.328H351.388V39.168C351.388 39.868 351.239 40.4887 350.94 41.03C350.641 41.5807 350.212 42.01 349.652 42.318C349.101 42.626 348.457 42.78 347.72 42.78C346.712 42.78 345.872 42.542 345.2 42.066C344.528 41.59 344.131 40.9413 344.01 40.12H345.27C345.41 40.5867 345.699 40.96 346.138 41.24C346.577 41.5293 347.104 41.674 347.72 41.674C348.42 41.674 348.989 41.4547 349.428 41.016C349.876 40.5773 350.1 39.9613 350.1 39.168V37.558C349.848 38.006 349.475 38.3793 348.98 38.678C348.485 38.9767 347.907 39.126 347.244 39.126C346.563 39.126 345.942 38.958 345.382 38.622C344.831 38.286 344.397 37.8147 344.08 37.208C343.763 36.6013 343.604 35.9107 343.604 35.136C343.604 34.352 343.763 33.666 344.08 33.078C344.397 32.4807 344.831 32.0187 345.382 31.692C345.942 31.3653 346.563 31.202 347.244 31.202ZM350.1 35.15C350.1 34.5713 349.983 34.0673 349.75 33.638C349.517 33.2087 349.199 32.882 348.798 32.658C348.406 32.4247 347.972 32.308 347.496 32.308C347.02 32.308 346.586 32.42 346.194 32.644C345.802 32.868 345.489 33.1947 345.256 33.624C345.023 34.0533 344.906 34.5573 344.906 35.136C344.906 35.724 345.023 36.2373 345.256 36.676C345.489 37.1053 345.802 37.4367 346.194 37.67C346.586 37.894 347.02 38.006 347.496 38.006C347.972 38.006 348.406 37.894 348.798 37.67C349.199 37.4367 349.517 37.1053 349.75 36.676C349.983 36.2373 350.1 35.7287 350.1 35.15ZM357.349 31.188C357.928 31.188 358.45 31.314 358.917 31.566C359.384 31.8087 359.748 32.1773 360.009 32.672C360.28 33.1667 360.415 33.7687 360.415 34.478V39H359.155V34.66C359.155 33.8947 358.964 33.3113 358.581 32.91C358.198 32.4993 357.676 32.294 357.013 32.294C356.341 32.294 355.804 32.504 355.403 32.924C355.011 33.344 354.815 33.9553 354.815 34.758V39H353.541V28.64H354.815V32.42C355.067 32.028 355.412 31.7247 355.851 31.51C356.299 31.2953 356.798 31.188 357.349 31.188ZM364.05 32.378V36.9C364.05 37.2733 364.129 37.5393 364.288 37.698C364.447 37.8473 364.722 37.922 365.114 37.922H366.052V39H364.904C364.195 39 363.663 38.8367 363.308 38.51C362.953 38.1833 362.776 37.6467 362.776 36.9V32.378H361.782V31.328H362.776V29.396H364.05V31.328H366.052V32.378H364.05ZM370.312 39.126C369.724 39.126 369.196 39.028 368.73 38.832C368.263 38.6267 367.894 38.3467 367.624 37.992C367.353 37.628 367.204 37.2127 367.176 36.746H368.492C368.529 37.1287 368.706 37.4413 369.024 37.684C369.35 37.9267 369.775 38.048 370.298 38.048C370.783 38.048 371.166 37.9407 371.446 37.726C371.726 37.5113 371.866 37.2407 371.866 36.914C371.866 36.578 371.716 36.3307 371.418 36.172C371.119 36.004 370.657 35.8407 370.032 35.682C369.462 35.5327 368.996 35.3833 368.632 35.234C368.277 35.0753 367.969 34.8467 367.708 34.548C367.456 34.24 367.33 33.8387 367.33 33.344C367.33 32.952 367.446 32.5927 367.68 32.266C367.913 31.9393 368.244 31.6827 368.674 31.496C369.103 31.3 369.593 31.202 370.144 31.202C370.993 31.202 371.679 31.4167 372.202 31.846C372.724 32.2753 373.004 32.8633 373.042 33.61H371.768C371.74 33.2087 371.576 32.8867 371.278 32.644C370.988 32.4013 370.596 32.28 370.102 32.28C369.644 32.28 369.28 32.378 369.01 32.574C368.739 32.77 368.604 33.0267 368.604 33.344C368.604 33.596 368.683 33.806 368.842 33.974C369.01 34.1327 369.215 34.2633 369.458 34.366C369.71 34.4593 370.055 34.5667 370.494 34.688C371.044 34.8373 371.492 34.9867 371.838 35.136C372.183 35.276 372.477 35.4907 372.72 35.78C372.972 36.0693 373.102 36.4473 373.112 36.914C373.112 37.334 372.995 37.712 372.762 38.048C372.528 38.384 372.197 38.65 371.768 38.846C371.348 39.0327 370.862 39.126 370.312 39.126ZM379.916 32.574C380.14 32.1353 380.458 31.7947 380.868 31.552C381.288 31.3093 381.797 31.188 382.394 31.188V32.504H382.058C380.63 32.504 379.916 33.2787 379.916 34.828V39H378.642V31.328H379.916V32.574ZM390.865 34.87C390.865 35.1127 390.851 35.3693 390.823 35.64H384.691C384.738 36.396 384.994 36.9887 385.461 37.418C385.937 37.838 386.511 38.048 387.183 38.048C387.734 38.048 388.191 37.922 388.555 37.67C388.928 37.4087 389.19 37.0633 389.339 36.634H390.711C390.506 37.3713 390.095 37.9733 389.479 38.44C388.863 38.8973 388.098 39.126 387.183 39.126C386.455 39.126 385.802 38.9627 385.223 38.636C384.654 38.3093 384.206 37.8473 383.879 37.25C383.552 36.6433 383.389 35.9433 383.389 35.15C383.389 34.3567 383.548 33.6613 383.865 33.064C384.182 32.4667 384.626 32.0093 385.195 31.692C385.774 31.3653 386.436 31.202 387.183 31.202C387.911 31.202 388.555 31.3607 389.115 31.678C389.675 31.9953 390.104 32.434 390.403 32.994C390.711 33.5447 390.865 34.17 390.865 34.87ZM389.549 34.604C389.549 34.1187 389.442 33.7033 389.227 33.358C389.012 33.0033 388.718 32.7373 388.345 32.56C387.981 32.3733 387.575 32.28 387.127 32.28C386.483 32.28 385.932 32.4853 385.475 32.896C385.027 33.3067 384.77 33.876 384.705 34.604H389.549ZM395.263 39.126C394.675 39.126 394.147 39.028 393.681 38.832C393.214 38.6267 392.845 38.3467 392.575 37.992C392.304 37.628 392.155 37.2127 392.127 36.746H393.443C393.48 37.1287 393.657 37.4413 393.975 37.684C394.301 37.9267 394.726 38.048 395.249 38.048C395.734 38.048 396.117 37.9407 396.397 37.726C396.677 37.5113 396.817 37.2407 396.817 36.914C396.817 36.578 396.667 36.3307 396.369 36.172C396.07 36.004 395.608 35.8407 394.983 35.682C394.413 35.5327 393.947 35.3833 393.583 35.234C393.228 35.0753 392.92 34.8467 392.659 34.548C392.407 34.24 392.281 33.8387 392.281 33.344C392.281 32.952 392.397 32.5927 392.631 32.266C392.864 31.9393 393.195 31.6827 393.625 31.496C394.054 31.3 394.544 31.202 395.095 31.202C395.944 31.202 396.63 31.4167 397.153 31.846C397.675 32.2753 397.955 32.8633 397.993 33.61H396.719C396.691 33.2087 396.527 32.8867 396.229 32.644C395.939 32.4013 395.547 32.28 395.053 32.28C394.595 32.28 394.231 32.378 393.961 32.574C393.69 32.77 393.555 33.0267 393.555 33.344C393.555 33.596 393.634 33.806 393.793 33.974C393.961 34.1327 394.166 34.2633 394.409 34.366C394.661 34.4593 395.006 34.5667 395.445 34.688C395.995 34.8373 396.443 34.9867 396.789 35.136C397.134 35.276 397.428 35.4907 397.671 35.78C397.923 36.0693 398.053 36.4473 398.063 36.914C398.063 37.334 397.946 37.712 397.713 38.048C397.479 38.384 397.148 38.65 396.719 38.846C396.299 39.0327 395.813 39.126 395.263 39.126ZM406.861 34.87C406.861 35.1127 406.847 35.3693 406.819 35.64H400.687C400.734 36.396 400.991 36.9887 401.457 37.418C401.933 37.838 402.507 38.048 403.179 38.048C403.73 38.048 404.187 37.922 404.551 37.67C404.925 37.4087 405.186 37.0633 405.335 36.634H406.707C406.502 37.3713 406.091 37.9733 405.475 38.44C404.859 38.8973 404.094 39.126 403.179 39.126C402.451 39.126 401.798 38.9627 401.219 38.636C400.65 38.3093 400.202 37.8473 399.875 37.25C399.549 36.6433 399.385 35.9433 399.385 35.15C399.385 34.3567 399.544 33.6613 399.861 33.064C400.179 32.4667 400.622 32.0093 401.191 31.692C401.77 31.3653 402.433 31.202 403.179 31.202C403.907 31.202 404.551 31.3607 405.111 31.678C405.671 31.9953 406.101 32.434 406.399 32.994C406.707 33.5447 406.861 34.17 406.861 34.87ZM405.545 34.604C405.545 34.1187 405.438 33.7033 405.223 33.358C405.009 33.0033 404.715 32.7373 404.341 32.56C403.977 32.3733 403.571 32.28 403.123 32.28C402.479 32.28 401.929 32.4853 401.471 32.896C401.023 33.3067 400.767 33.876 400.701 34.604H405.545ZM409.817 32.574C410.041 32.1353 410.358 31.7947 410.769 31.552C411.189 31.3093 411.698 31.188 412.295 31.188V32.504H411.959C410.531 32.504 409.817 33.2787 409.817 34.828V39H408.543V31.328H409.817V32.574ZM416.622 37.824L419.002 31.328H420.36L417.35 39H415.866L412.856 31.328H414.228L416.622 37.824ZM428.613 34.87C428.613 35.1127 428.599 35.3693 428.571 35.64H422.439C422.486 36.396 422.742 36.9887 423.209 37.418C423.685 37.838 424.259 38.048 424.931 38.048C425.482 38.048 425.939 37.922 426.303 37.67C426.676 37.4087 426.938 37.0633 427.087 36.634H428.459C428.254 37.3713 427.843 37.9733 427.227 38.44C426.611 38.8973 425.846 39.126 424.931 39.126C424.203 39.126 423.55 38.9627 422.971 38.636C422.402 38.3093 421.954 37.8473 421.627 37.25C421.3 36.6433 421.137 35.9433 421.137 35.15C421.137 34.3567 421.296 33.6613 421.613 33.064C421.93 32.4667 422.374 32.0093 422.943 31.692C423.522 31.3653 424.184 31.202 424.931 31.202C425.659 31.202 426.303 31.3607 426.863 31.678C427.423 31.9953 427.852 32.434 428.151 32.994C428.459 33.5447 428.613 34.17 428.613 34.87ZM427.297 34.604C427.297 34.1187 427.19 33.7033 426.975 33.358C426.76 33.0033 426.466 32.7373 426.093 32.56C425.729 32.3733 425.323 32.28 424.875 32.28C424.231 32.28 423.68 32.4853 423.223 32.896C422.775 33.3067 422.518 33.876 422.453 34.604H427.297ZM429.819 35.136C429.819 34.352 429.977 33.666 430.295 33.078C430.612 32.4807 431.046 32.0187 431.597 31.692C432.157 31.3653 432.782 31.202 433.473 31.202C434.07 31.202 434.625 31.342 435.139 31.622C435.652 31.8927 436.044 32.252 436.315 32.7V28.64H437.603V39H436.315V37.558C436.063 38.0153 435.689 38.3933 435.195 38.692C434.7 38.9813 434.121 39.126 433.459 39.126C432.777 39.126 432.157 38.958 431.597 38.622C431.046 38.286 430.612 37.8147 430.295 37.208C429.977 36.6013 429.819 35.9107 429.819 35.136ZM436.315 35.15C436.315 34.5713 436.198 34.0673 435.965 33.638C435.731 33.2087 435.414 32.882 435.013 32.658C434.621 32.4247 434.187 32.308 433.711 32.308C433.235 32.308 432.801 32.42 432.409 32.644C432.017 32.868 431.704 33.1947 431.471 33.624C431.237 34.0533 431.121 34.5573 431.121 35.136C431.121 35.724 431.237 36.2373 431.471 36.676C431.704 37.1053 432.017 37.4367 432.409 37.67C432.801 37.894 433.235 38.006 433.711 38.006C434.187 38.006 434.621 37.894 435.013 37.67C435.414 37.4367 435.731 37.1053 435.965 36.676C436.198 36.2373 436.315 35.7287 436.315 35.15ZM440.162 39.084C439.919 39.084 439.714 39 439.546 38.832C439.378 38.664 439.294 38.4587 439.294 38.216C439.294 37.9733 439.378 37.768 439.546 37.6C439.714 37.432 439.919 37.348 440.162 37.348C440.395 37.348 440.591 37.432 440.75 37.6C440.918 37.768 441.002 37.9733 441.002 38.216C441.002 38.4587 440.918 38.664 440.75 38.832C440.591 39 440.395 39.084 440.162 39.084Z" fill="#77798F"/>
<path d="M1380.08 29.242V30.278H1377.42V39H1376.15V30.278H1373.48V29.242H1380.08ZM1388.65 34.87C1388.65 35.1127 1388.64 35.3693 1388.61 35.64H1382.48C1382.52 36.396 1382.78 36.9887 1383.25 37.418C1383.72 37.838 1384.3 38.048 1384.97 38.048C1385.52 38.048 1385.98 37.922 1386.34 37.67C1386.72 37.4087 1386.98 37.0633 1387.13 36.634H1388.5C1388.29 37.3713 1387.88 37.9733 1387.27 38.44C1386.65 38.8973 1385.88 39.126 1384.97 39.126C1384.24 39.126 1383.59 38.9627 1383.01 38.636C1382.44 38.3093 1381.99 37.8473 1381.67 37.25C1381.34 36.6433 1381.18 35.9433 1381.18 35.15C1381.18 34.3567 1381.33 33.6613 1381.65 33.064C1381.97 32.4667 1382.41 32.0093 1382.98 31.692C1383.56 31.3653 1384.22 31.202 1384.97 31.202C1385.7 31.202 1386.34 31.3607 1386.9 31.678C1387.46 31.9953 1387.89 32.434 1388.19 32.994C1388.5 33.5447 1388.65 34.17 1388.65 34.87ZM1387.34 34.604C1387.34 34.1187 1387.23 33.7033 1387.01 33.358C1386.8 33.0033 1386.51 32.7373 1386.13 32.56C1385.77 32.3733 1385.36 32.28 1384.91 32.28C1384.27 32.28 1383.72 32.4853 1383.26 32.896C1382.81 33.3067 1382.56 33.876 1382.49 34.604H1387.34ZM1391.61 32.574C1391.83 32.1353 1392.15 31.7947 1392.56 31.552C1392.98 31.3093 1393.49 31.188 1394.09 31.188V32.504H1393.75C1392.32 32.504 1391.61 33.2787 1391.61 34.828V39H1390.33V31.328H1391.61V32.574ZM1404.78 31.188C1405.38 31.188 1405.91 31.314 1406.38 31.566C1406.85 31.8087 1407.21 32.1773 1407.48 32.672C1407.76 33.1667 1407.89 33.7687 1407.89 34.478V39H1406.63V34.66C1406.63 33.8947 1406.44 33.3113 1406.06 32.91C1405.68 32.4993 1405.17 32.294 1404.53 32.294C1403.87 32.294 1403.34 32.5087 1402.95 32.938C1402.56 33.358 1402.36 33.9693 1402.36 34.772V39H1401.1V34.66C1401.1 33.8947 1400.91 33.3113 1400.53 32.91C1400.15 32.4993 1399.64 32.294 1399 32.294C1398.34 32.294 1397.81 32.5087 1397.42 32.938C1397.03 33.358 1396.83 33.9693 1396.83 34.772V39H1395.56V31.328H1396.83V32.434C1397.08 32.0327 1397.42 31.7247 1397.84 31.51C1398.27 31.2953 1398.74 31.188 1399.25 31.188C1399.9 31.188 1400.47 31.3327 1400.96 31.622C1401.46 31.9113 1401.82 32.336 1402.07 32.896C1402.28 32.3547 1402.64 31.9347 1403.13 31.636C1403.63 31.3373 1404.18 31.188 1404.78 31.188ZM1412.7 39.126C1412.11 39.126 1411.58 39.028 1411.11 38.832C1410.65 38.6267 1410.28 38.3467 1410.01 37.992C1409.74 37.628 1409.59 37.2127 1409.56 36.746H1410.88C1410.91 37.1287 1411.09 37.4413 1411.41 37.684C1411.74 37.9267 1412.16 38.048 1412.68 38.048C1413.17 38.048 1413.55 37.9407 1413.83 37.726C1414.11 37.5113 1414.25 37.2407 1414.25 36.914C1414.25 36.578 1414.1 36.3307 1413.8 36.172C1413.5 36.004 1413.04 35.8407 1412.42 35.682C1411.85 35.5327 1411.38 35.3833 1411.02 35.234C1410.66 35.0753 1410.35 34.8467 1410.09 34.548C1409.84 34.24 1409.71 33.8387 1409.71 33.344C1409.71 32.952 1409.83 32.5927 1410.06 32.266C1410.3 31.9393 1410.63 31.6827 1411.06 31.496C1411.49 31.3 1411.98 31.202 1412.53 31.202C1413.38 31.202 1414.06 31.4167 1414.59 31.846C1415.11 32.2753 1415.39 32.8633 1415.43 33.61H1414.15C1414.12 33.2087 1413.96 32.8867 1413.66 32.644C1413.37 32.4013 1412.98 32.28 1412.49 32.28C1412.03 32.28 1411.67 32.378 1411.39 32.574C1411.12 32.77 1410.99 33.0267 1410.99 33.344C1410.99 33.596 1411.07 33.806 1411.23 33.974C1411.39 34.1327 1411.6 34.2633 1411.84 34.366C1412.09 34.4593 1412.44 34.5667 1412.88 34.688C1413.43 34.8373 1413.88 34.9867 1414.22 35.136C1414.57 35.276 1414.86 35.4907 1415.1 35.78C1415.36 36.0693 1415.49 36.4473 1415.5 36.914C1415.5 37.334 1415.38 37.712 1415.15 38.048C1414.91 38.384 1414.58 38.65 1414.15 38.846C1413.73 39.0327 1413.25 39.126 1412.7 39.126ZM1424.37 39.126C1423.65 39.126 1423 38.9627 1422.41 38.636C1421.83 38.3093 1421.38 37.8473 1421.04 37.25C1420.71 36.6433 1420.55 35.9433 1420.55 35.15C1420.55 34.366 1420.72 33.6753 1421.06 33.078C1421.4 32.4713 1421.87 32.0093 1422.46 31.692C1423.04 31.3653 1423.7 31.202 1424.43 31.202C1425.16 31.202 1425.82 31.3653 1426.4 31.692C1426.99 32.0093 1427.45 32.4667 1427.79 33.064C1428.13 33.6613 1428.31 34.3567 1428.31 35.15C1428.31 35.9433 1428.13 36.6433 1427.78 37.25C1427.43 37.8473 1426.96 38.3093 1426.36 38.636C1425.76 38.9627 1425.1 39.126 1424.37 39.126ZM1424.37 38.006C1424.83 38.006 1425.26 37.8987 1425.66 37.684C1426.06 37.4693 1426.38 37.1473 1426.63 36.718C1426.88 36.2887 1427.01 35.766 1427.01 35.15C1427.01 34.534 1426.88 34.0113 1426.64 33.582C1426.4 33.1527 1426.08 32.8353 1425.69 32.63C1425.3 32.4153 1424.87 32.308 1424.42 32.308C1423.95 32.308 1423.52 32.4153 1423.13 32.63C1422.74 32.8353 1422.44 33.1527 1422.2 33.582C1421.97 34.0113 1421.85 34.534 1421.85 35.15C1421.85 35.7753 1421.97 36.3027 1422.19 36.732C1422.42 37.1613 1422.73 37.4833 1423.11 37.698C1423.5 37.9033 1423.92 38.006 1424.37 38.006ZM1433.1 32.378H1431.49V39H1430.22V32.378H1429.23V31.328H1430.22V30.782C1430.22 29.9233 1430.44 29.298 1430.88 28.906C1431.33 28.5047 1432.04 28.304 1433.02 28.304V29.368C1432.46 29.368 1432.06 29.48 1431.83 29.704C1431.61 29.9187 1431.49 30.278 1431.49 30.782V31.328H1433.1V32.378ZM1441.42 39.098C1440.77 39.098 1440.19 38.986 1439.68 38.762C1439.18 38.5287 1438.78 38.2113 1438.49 37.81C1438.2 37.3993 1438.05 36.928 1438.04 36.396H1439.4C1439.45 36.8533 1439.63 37.2407 1439.96 37.558C1440.3 37.866 1440.78 38.02 1441.42 38.02C1442.02 38.02 1442.5 37.8707 1442.84 37.572C1443.2 37.264 1443.38 36.872 1443.38 36.396C1443.38 36.0227 1443.27 35.7193 1443.07 35.486C1442.86 35.2527 1442.61 35.0753 1442.3 34.954C1441.99 34.8327 1441.57 34.702 1441.05 34.562C1440.41 34.394 1439.89 34.226 1439.5 34.058C1439.12 33.89 1438.78 33.6287 1438.5 33.274C1438.23 32.91 1438.1 32.4247 1438.1 31.818C1438.1 31.286 1438.23 30.8147 1438.5 30.404C1438.77 29.9933 1439.15 29.676 1439.64 29.452C1440.13 29.228 1440.7 29.116 1441.33 29.116C1442.25 29.116 1442.99 29.3447 1443.57 29.802C1444.16 30.2593 1444.49 30.866 1444.57 31.622H1443.17C1443.12 31.2487 1442.92 30.922 1442.58 30.642C1442.23 30.3527 1441.78 30.208 1441.21 30.208C1440.67 30.208 1440.24 30.348 1439.9 30.628C1439.57 30.8987 1439.4 31.2813 1439.4 31.776C1439.4 32.1307 1439.5 32.42 1439.69 32.644C1439.9 32.868 1440.15 33.0407 1440.44 33.162C1440.73 33.274 1441.15 33.4047 1441.68 33.554C1442.33 33.7313 1442.84 33.9087 1443.24 34.086C1443.63 34.254 1443.96 34.52 1444.24 34.884C1444.52 35.2387 1444.66 35.724 1444.66 36.34C1444.66 36.816 1444.54 37.264 1444.29 37.684C1444.03 38.104 1443.66 38.4447 1443.17 38.706C1442.67 38.9673 1442.09 39.098 1441.42 39.098ZM1453.54 34.87C1453.54 35.1127 1453.52 35.3693 1453.5 35.64H1447.36C1447.41 36.396 1447.67 36.9887 1448.13 37.418C1448.61 37.838 1449.18 38.048 1449.86 38.048C1450.41 38.048 1450.86 37.922 1451.23 37.67C1451.6 37.4087 1451.86 37.0633 1452.01 36.634H1453.38C1453.18 37.3713 1452.77 37.9733 1452.15 38.44C1451.54 38.8973 1450.77 39.126 1449.86 39.126C1449.13 39.126 1448.48 38.9627 1447.9 38.636C1447.33 38.3093 1446.88 37.8473 1446.55 37.25C1446.23 36.6433 1446.06 35.9433 1446.06 35.15C1446.06 34.3567 1446.22 33.6613 1446.54 33.064C1446.86 32.4667 1447.3 32.0093 1447.87 31.692C1448.45 31.3653 1449.11 31.202 1449.86 31.202C1450.58 31.202 1451.23 31.3607 1451.79 31.678C1452.35 31.9953 1452.78 32.434 1453.08 32.994C1453.38 33.5447 1453.54 34.17 1453.54 34.87ZM1452.22 34.604C1452.22 34.1187 1452.12 33.7033 1451.9 33.358C1451.69 33.0033 1451.39 32.7373 1451.02 32.56C1450.65 32.3733 1450.25 32.28 1449.8 32.28C1449.16 32.28 1448.61 32.4853 1448.15 32.896C1447.7 33.3067 1447.44 33.876 1447.38 34.604H1452.22ZM1456.49 32.574C1456.72 32.1353 1457.04 31.7947 1457.45 31.552C1457.87 31.3093 1458.38 31.188 1458.97 31.188V32.504H1458.64C1457.21 32.504 1456.49 33.2787 1456.49 34.828V39H1455.22V31.328H1456.49V32.574ZM1463.3 37.824L1465.68 31.328H1467.04L1464.03 39H1462.54L1459.53 31.328H1460.91L1463.3 37.824ZM1468.95 30.082C1468.71 30.082 1468.5 29.998 1468.33 29.83C1468.16 29.662 1468.08 29.4567 1468.08 29.214C1468.08 28.9713 1468.16 28.766 1468.33 28.598C1468.5 28.43 1468.71 28.346 1468.95 28.346C1469.18 28.346 1469.38 28.43 1469.54 28.598C1469.7 28.766 1469.79 28.9713 1469.79 29.214C1469.79 29.4567 1469.7 29.662 1469.54 29.83C1469.38 29.998 1469.18 30.082 1468.95 30.082ZM1469.56 31.328V39H1468.29V31.328H1469.56ZM1471.26 35.15C1471.26 34.3567 1471.42 33.666 1471.74 33.078C1472.05 32.4807 1472.49 32.0187 1473.05 31.692C1473.62 31.3653 1474.27 31.202 1475 31.202C1475.94 31.202 1476.72 31.4307 1477.32 31.888C1477.94 32.3453 1478.34 32.98 1478.54 33.792H1477.17C1477.04 33.3253 1476.78 32.9567 1476.4 32.686C1476.02 32.4153 1475.56 32.28 1475 32.28C1474.27 32.28 1473.68 32.532 1473.23 33.036C1472.79 33.5307 1472.56 34.2353 1472.56 35.15C1472.56 36.074 1472.79 36.788 1473.23 37.292C1473.68 37.796 1474.27 38.048 1475 38.048C1475.56 38.048 1476.02 37.9173 1476.4 37.656C1476.77 37.3947 1477.03 37.0213 1477.17 36.536H1478.54C1478.33 37.32 1477.92 37.95 1477.31 38.426C1476.69 38.8927 1475.92 39.126 1475 39.126C1474.27 39.126 1473.62 38.9627 1473.05 38.636C1472.49 38.3093 1472.05 37.8473 1471.74 37.25C1471.42 36.6527 1471.26 35.9527 1471.26 35.15ZM1487.24 34.87C1487.24 35.1127 1487.23 35.3693 1487.2 35.64H1481.07C1481.11 36.396 1481.37 36.9887 1481.84 37.418C1482.31 37.838 1482.89 38.048 1483.56 38.048C1484.11 38.048 1484.57 37.922 1484.93 37.67C1485.3 37.4087 1485.56 37.0633 1485.71 36.634H1487.09C1486.88 37.3713 1486.47 37.9733 1485.85 38.44C1485.24 38.8973 1484.47 39.126 1483.56 39.126C1482.83 39.126 1482.18 38.9627 1481.6 38.636C1481.03 38.3093 1480.58 37.8473 1480.25 37.25C1479.93 36.6433 1479.76 35.9433 1479.76 35.15C1479.76 34.3567 1479.92 33.6613 1480.24 33.064C1480.56 32.4667 1481 32.0093 1481.57 31.692C1482.15 31.3653 1482.81 31.202 1483.56 31.202C1484.29 31.202 1484.93 31.3607 1485.49 31.678C1486.05 31.9953 1486.48 32.434 1486.78 32.994C1487.09 33.5447 1487.24 34.17 1487.24 34.87ZM1485.92 34.604C1485.92 34.1187 1485.82 33.7033 1485.6 33.358C1485.39 33.0033 1485.09 32.7373 1484.72 32.56C1484.36 32.3733 1483.95 32.28 1483.5 32.28C1482.86 32.28 1482.31 32.4853 1481.85 32.896C1481.4 33.3067 1481.15 33.876 1481.08 34.604H1485.92Z" fill="#77798F"/>
<path d="M1527.6 32.098C1527.6 32.91 1527.32 33.5867 1526.76 34.128C1526.21 34.66 1525.37 34.926 1524.23 34.926H1522.35V39H1521.08V29.242H1524.23C1525.33 29.242 1526.16 29.508 1526.73 30.04C1527.31 30.572 1527.6 31.258 1527.6 32.098ZM1524.23 33.876C1524.94 33.876 1525.46 33.722 1525.8 33.414C1526.13 33.106 1526.3 32.6673 1526.3 32.098C1526.3 30.894 1525.61 30.292 1524.23 30.292H1522.35V33.876H1524.23ZM1530.46 32.574C1530.68 32.1353 1531 31.7947 1531.41 31.552C1531.83 31.3093 1532.34 31.188 1532.94 31.188V32.504H1532.6C1531.17 32.504 1530.46 33.2787 1530.46 34.828V39H1529.19V31.328H1530.46V32.574ZM1535.07 30.082C1534.82 30.082 1534.62 29.998 1534.45 29.83C1534.28 29.662 1534.2 29.4567 1534.2 29.214C1534.2 28.9713 1534.28 28.766 1534.45 28.598C1534.62 28.43 1534.82 28.346 1535.07 28.346C1535.3 28.346 1535.5 28.43 1535.65 28.598C1535.82 28.766 1535.91 28.9713 1535.91 29.214C1535.91 29.4567 1535.82 29.662 1535.65 29.83C1535.5 29.998 1535.3 30.082 1535.07 30.082ZM1535.68 31.328V39H1534.41V31.328H1535.68ZM1540.71 37.824L1543.09 31.328H1544.45L1541.44 39H1539.95L1536.94 31.328H1538.32L1540.71 37.824ZM1545.23 35.136C1545.23 34.352 1545.38 33.666 1545.7 33.078C1546.02 32.4807 1546.45 32.0187 1547 31.692C1547.56 31.3653 1548.18 31.202 1548.87 31.202C1549.54 31.202 1550.12 31.3467 1550.62 31.636C1551.11 31.9253 1551.48 32.2893 1551.72 32.728V31.328H1553.01V39H1551.72V37.572C1551.47 38.02 1551.09 38.3933 1550.59 38.692C1550.09 38.9813 1549.51 39.126 1548.85 39.126C1548.17 39.126 1547.55 38.958 1547 38.622C1546.45 38.286 1546.02 37.8147 1545.7 37.208C1545.38 36.6013 1545.23 35.9107 1545.23 35.136ZM1551.72 35.15C1551.72 34.5713 1551.6 34.0673 1551.37 33.638C1551.14 33.2087 1550.82 32.882 1550.42 32.658C1550.03 32.4247 1549.59 32.308 1549.12 32.308C1548.64 32.308 1548.21 32.42 1547.82 32.644C1547.42 32.868 1547.11 33.1947 1546.88 33.624C1546.64 34.0533 1546.53 34.5573 1546.53 35.136C1546.53 35.724 1546.64 36.2373 1546.88 36.676C1547.11 37.1053 1547.42 37.4367 1547.82 37.67C1548.21 37.894 1548.64 38.006 1549.12 38.006C1549.59 38.006 1550.03 37.894 1550.42 37.67C1550.82 37.4367 1551.14 37.1053 1551.37 36.676C1551.6 36.2373 1551.72 35.7287 1551.72 35.15ZM1554.69 35.15C1554.69 34.3567 1554.84 33.666 1555.16 33.078C1555.48 32.4807 1555.92 32.0187 1556.48 31.692C1557.05 31.3653 1557.7 31.202 1558.42 31.202C1559.37 31.202 1560.14 31.4307 1560.75 31.888C1561.36 32.3453 1561.77 32.98 1561.97 33.792H1560.59C1560.46 33.3253 1560.21 32.9567 1559.82 32.686C1559.45 32.4153 1558.98 32.28 1558.42 32.28C1557.7 32.28 1557.11 32.532 1556.66 33.036C1556.21 33.5307 1555.99 34.2353 1555.99 35.15C1555.99 36.074 1556.21 36.788 1556.66 37.292C1557.11 37.796 1557.7 38.048 1558.42 38.048C1558.98 38.048 1559.45 37.9173 1559.82 37.656C1560.2 37.3947 1560.45 37.0213 1560.59 36.536H1561.97C1561.76 37.32 1561.35 37.95 1560.73 38.426C1560.12 38.8927 1559.35 39.126 1558.42 39.126C1557.7 39.126 1557.05 38.9627 1556.48 38.636C1555.92 38.3093 1555.48 37.8473 1555.16 37.25C1554.84 36.6527 1554.69 35.9527 1554.69 35.15ZM1570.27 31.328L1565.65 42.612H1564.34L1565.85 38.916L1562.76 31.328H1564.17L1566.58 37.544L1568.96 31.328H1570.27ZM1581.81 32.098C1581.81 32.91 1581.53 33.5867 1580.97 34.128C1580.42 34.66 1579.58 34.926 1578.44 34.926H1576.56V39H1575.29V29.242H1578.44C1579.54 29.242 1580.37 29.508 1580.94 30.04C1581.52 30.572 1581.81 31.258 1581.81 32.098ZM1578.44 33.876C1579.15 33.876 1579.67 33.722 1580 33.414C1580.34 33.106 1580.51 32.6673 1580.51 32.098C1580.51 30.894 1579.82 30.292 1578.44 30.292H1576.56V33.876H1578.44ZM1586.74 39.126C1586.02 39.126 1585.37 38.9627 1584.78 38.636C1584.2 38.3093 1583.74 37.8473 1583.41 37.25C1583.08 36.6433 1582.92 35.9433 1582.92 35.15C1582.92 34.366 1583.09 33.6753 1583.42 33.078C1583.77 32.4713 1584.23 32.0093 1584.82 31.692C1585.41 31.3653 1586.07 31.202 1586.8 31.202C1587.52 31.202 1588.18 31.3653 1588.77 31.692C1589.36 32.0093 1589.82 32.4667 1590.16 33.064C1590.5 33.6613 1590.67 34.3567 1590.67 35.15C1590.67 35.9433 1590.5 36.6433 1590.14 37.25C1589.8 37.8473 1589.33 38.3093 1588.73 38.636C1588.13 38.9627 1587.47 39.126 1586.74 39.126ZM1586.74 38.006C1587.2 38.006 1587.63 37.8987 1588.03 37.684C1588.43 37.4693 1588.75 37.1473 1588.99 36.718C1589.25 36.2887 1589.37 35.766 1589.37 35.15C1589.37 34.534 1589.25 34.0113 1589.01 33.582C1588.77 33.1527 1588.45 32.8353 1588.06 32.63C1587.66 32.4153 1587.24 32.308 1586.78 32.308C1586.32 32.308 1585.89 32.4153 1585.49 32.63C1585.11 32.8353 1584.8 33.1527 1584.57 33.582C1584.34 34.0113 1584.22 34.534 1584.22 35.15C1584.22 35.7753 1584.33 36.3027 1584.56 36.732C1584.79 37.1613 1585.1 37.4833 1585.48 37.698C1585.86 37.9033 1586.28 38.006 1586.74 38.006ZM1593.62 28.64V39H1592.35V28.64H1593.62ZM1596.45 30.082C1596.21 30.082 1596 29.998 1595.84 29.83C1595.67 29.662 1595.58 29.4567 1595.58 29.214C1595.58 28.9713 1595.67 28.766 1595.84 28.598C1596 28.43 1596.21 28.346 1596.45 28.346C1596.69 28.346 1596.88 28.43 1597.04 28.598C1597.21 28.766 1597.29 28.9713 1597.29 29.214C1597.29 29.4567 1597.21 29.662 1597.04 29.83C1596.88 29.998 1596.69 30.082 1596.45 30.082ZM1597.07 31.328V39H1595.79V31.328H1597.07ZM1598.76 35.15C1598.76 34.3567 1598.92 33.666 1599.24 33.078C1599.56 32.4807 1600 32.0187 1600.56 31.692C1601.13 31.3653 1601.77 31.202 1602.5 31.202C1603.44 31.202 1604.22 31.4307 1604.83 31.888C1605.44 32.3453 1605.85 32.98 1606.04 33.792H1604.67C1604.54 33.3253 1604.28 32.9567 1603.9 32.686C1603.53 32.4153 1603.06 32.28 1602.5 32.28C1601.77 32.28 1601.19 32.532 1600.74 33.036C1600.29 33.5307 1600.07 34.2353 1600.07 35.15C1600.07 36.074 1600.29 36.788 1600.74 37.292C1601.19 37.796 1601.77 38.048 1602.5 38.048C1603.06 38.048 1603.53 37.9173 1603.9 37.656C1604.28 37.3947 1604.53 37.0213 1604.67 36.536H1606.04C1605.84 37.32 1605.43 37.95 1604.81 38.426C1604.2 38.8927 1603.43 39.126 1602.5 39.126C1601.77 39.126 1601.13 38.9627 1600.56 38.636C1600 38.3093 1599.56 37.8473 1599.24 37.25C1598.92 36.6527 1598.76 35.9527 1598.76 35.15ZM1614.35 31.328L1609.73 42.612H1608.42L1609.93 38.916L1606.83 31.328H1608.25L1610.66 37.544L1613.04 31.328H1614.35Z" fill="#77798F"/>
<path d="M1647.6 34.114C1647.6 33.162 1647.82 32.308 1648.25 31.552C1648.68 30.7867 1649.26 30.1893 1650 29.76C1650.74 29.3307 1651.57 29.116 1652.47 29.116C1653.54 29.116 1654.47 29.3727 1655.26 29.886C1656.05 30.3993 1656.63 31.1273 1657 32.07H1655.47C1655.2 31.482 1654.81 31.0293 1654.29 30.712C1653.79 30.3947 1653.18 30.236 1652.47 30.236C1651.79 30.236 1651.18 30.3947 1650.64 30.712C1650.1 31.0293 1649.67 31.482 1649.37 32.07C1649.06 32.6487 1648.9 33.33 1648.9 34.114C1648.9 34.8887 1649.06 35.57 1649.37 36.158C1649.67 36.7367 1650.1 37.1847 1650.64 37.502C1651.18 37.8193 1651.79 37.978 1652.47 37.978C1653.18 37.978 1653.79 37.824 1654.29 37.516C1654.81 37.1987 1655.2 36.746 1655.47 36.158H1657C1656.63 37.0913 1656.05 37.8147 1655.26 38.328C1654.47 38.832 1653.54 39.084 1652.47 39.084C1651.57 39.084 1650.74 38.874 1650 38.454C1649.26 38.0247 1648.68 37.432 1648.25 36.676C1647.82 35.92 1647.6 35.066 1647.6 34.114ZM1662.24 39.126C1661.52 39.126 1660.87 38.9627 1660.28 38.636C1659.7 38.3093 1659.24 37.8473 1658.91 37.25C1658.58 36.6433 1658.42 35.9433 1658.42 35.15C1658.42 34.366 1658.58 33.6753 1658.92 33.078C1659.27 32.4713 1659.73 32.0093 1660.32 31.692C1660.91 31.3653 1661.57 31.202 1662.29 31.202C1663.02 31.202 1663.68 31.3653 1664.27 31.692C1664.86 32.0093 1665.32 32.4667 1665.65 33.064C1666 33.6613 1666.17 34.3567 1666.17 35.15C1666.17 35.9433 1666 36.6433 1665.64 37.25C1665.3 37.8473 1664.82 38.3093 1664.23 38.636C1663.63 38.9627 1662.97 39.126 1662.24 39.126ZM1662.24 38.006C1662.7 38.006 1663.13 37.8987 1663.53 37.684C1663.93 37.4693 1664.25 37.1473 1664.49 36.718C1664.74 36.2887 1664.87 35.766 1664.87 35.15C1664.87 34.534 1664.75 34.0113 1664.51 33.582C1664.26 33.1527 1663.95 32.8353 1663.55 32.63C1663.16 32.4153 1662.74 32.308 1662.28 32.308C1661.81 32.308 1661.38 32.4153 1660.99 32.63C1660.61 32.8353 1660.3 33.1527 1660.07 33.582C1659.84 34.0113 1659.72 34.534 1659.72 35.15C1659.72 35.7753 1659.83 36.3027 1660.05 36.732C1660.29 37.1613 1660.6 37.4833 1660.98 37.698C1661.36 37.9033 1661.78 38.006 1662.24 38.006ZM1671.19 39.126C1670.47 39.126 1669.82 38.9627 1669.23 38.636C1668.65 38.3093 1668.2 37.8473 1667.86 37.25C1667.53 36.6433 1667.37 35.9433 1667.37 35.15C1667.37 34.366 1667.54 33.6753 1667.88 33.078C1668.22 32.4713 1668.69 32.0093 1669.28 31.692C1669.86 31.3653 1670.52 31.202 1671.25 31.202C1671.98 31.202 1672.64 31.3653 1673.22 31.692C1673.81 32.0093 1674.27 32.4667 1674.61 33.064C1674.95 33.6613 1675.13 34.3567 1675.13 35.15C1675.13 35.9433 1674.95 36.6433 1674.6 37.25C1674.25 37.8473 1673.78 38.3093 1673.18 38.636C1672.58 38.9627 1671.92 39.126 1671.19 39.126ZM1671.19 38.006C1671.65 38.006 1672.08 37.8987 1672.48 37.684C1672.88 37.4693 1673.2 37.1473 1673.45 36.718C1673.7 36.2887 1673.83 35.766 1673.83 35.15C1673.83 34.534 1673.7 34.0113 1673.46 33.582C1673.22 33.1527 1672.9 32.8353 1672.51 32.63C1672.12 32.4153 1671.69 32.308 1671.24 32.308C1670.77 32.308 1670.34 32.4153 1669.95 32.63C1669.56 32.8353 1669.26 33.1527 1669.02 33.582C1668.79 34.0113 1668.67 34.534 1668.67 35.15C1668.67 35.7753 1668.79 36.3027 1669.01 36.732C1669.24 37.1613 1669.55 37.4833 1669.93 37.698C1670.32 37.9033 1670.74 38.006 1671.19 38.006ZM1681.09 39L1678.08 35.612V39H1676.8V28.64H1678.08V34.73L1681.03 31.328H1682.81L1679.2 35.15L1682.82 39H1681.09ZM1684.67 30.082C1684.42 30.082 1684.22 29.998 1684.05 29.83C1683.88 29.662 1683.8 29.4567 1683.8 29.214C1683.8 28.9713 1683.88 28.766 1684.05 28.598C1684.22 28.43 1684.42 28.346 1684.67 28.346C1684.9 28.346 1685.1 28.43 1685.25 28.598C1685.42 28.766 1685.51 28.9713 1685.51 29.214C1685.51 29.4567 1685.42 29.662 1685.25 29.83C1685.1 29.998 1684.9 30.082 1684.67 30.082ZM1685.28 31.328V39H1684.01V31.328H1685.28ZM1694.45 34.87C1694.45 35.1127 1694.44 35.3693 1694.41 35.64H1688.28C1688.33 36.396 1688.58 36.9887 1689.05 37.418C1689.53 37.838 1690.1 38.048 1690.77 38.048C1691.32 38.048 1691.78 37.922 1692.14 37.67C1692.52 37.4087 1692.78 37.0633 1692.93 36.634H1694.3C1694.09 37.3713 1693.68 37.9733 1693.07 38.44C1692.45 38.8973 1691.69 39.126 1690.77 39.126C1690.04 39.126 1689.39 38.9627 1688.81 38.636C1688.24 38.3093 1687.79 37.8473 1687.47 37.25C1687.14 36.6433 1686.98 35.9433 1686.98 35.15C1686.98 34.3567 1687.14 33.6613 1687.45 33.064C1687.77 32.4667 1688.21 32.0093 1688.78 31.692C1689.36 31.3653 1690.02 31.202 1690.77 31.202C1691.5 31.202 1692.14 31.3607 1692.7 31.678C1693.26 31.9953 1693.69 32.434 1693.99 32.994C1694.3 33.5447 1694.45 34.17 1694.45 34.87ZM1693.14 34.604C1693.14 34.1187 1693.03 33.7033 1692.82 33.358C1692.6 33.0033 1692.31 32.7373 1691.93 32.56C1691.57 32.3733 1691.16 32.28 1690.72 32.28C1690.07 32.28 1689.52 32.4853 1689.06 32.896C1688.62 33.3067 1688.36 33.876 1688.29 34.604H1693.14ZM1698.85 39.126C1698.26 39.126 1697.74 39.028 1697.27 38.832C1696.8 38.6267 1696.43 38.3467 1696.16 37.992C1695.89 37.628 1695.74 37.2127 1695.71 36.746H1697.03C1697.07 37.1287 1697.25 37.4413 1697.56 37.684C1697.89 37.9267 1698.31 38.048 1698.84 38.048C1699.32 38.048 1699.7 37.9407 1699.98 37.726C1700.26 37.5113 1700.4 37.2407 1700.4 36.914C1700.4 36.578 1700.26 36.3307 1699.96 36.172C1699.66 36.004 1699.2 35.8407 1698.57 35.682C1698 35.5327 1697.53 35.3833 1697.17 35.234C1696.82 35.0753 1696.51 34.8467 1696.25 34.548C1695.99 34.24 1695.87 33.8387 1695.87 33.344C1695.87 32.952 1695.99 32.5927 1696.22 32.266C1696.45 31.9393 1696.78 31.6827 1697.21 31.496C1697.64 31.3 1698.13 31.202 1698.68 31.202C1699.53 31.202 1700.22 31.4167 1700.74 31.846C1701.26 32.2753 1701.54 32.8633 1701.58 33.61H1700.31C1700.28 33.2087 1700.12 32.8867 1699.82 32.644C1699.53 32.4013 1699.14 32.28 1698.64 32.28C1698.18 32.28 1697.82 32.378 1697.55 32.574C1697.28 32.77 1697.14 33.0267 1697.14 33.344C1697.14 33.596 1697.22 33.806 1697.38 33.974C1697.55 34.1327 1697.75 34.2633 1698 34.366C1698.25 34.4593 1698.59 34.5667 1699.03 34.688C1699.58 34.8373 1700.03 34.9867 1700.38 35.136C1700.72 35.276 1701.02 35.4907 1701.26 35.78C1701.51 36.0693 1701.64 36.4473 1701.65 36.914C1701.65 37.334 1701.53 37.712 1701.3 38.048C1701.07 38.384 1700.74 38.65 1700.31 38.846C1699.89 39.0327 1699.4 39.126 1698.85 39.126Z" fill="#77798F"/>
</g>
<defs>
<filter id="filter0_i_32_2878" x="-17" y="0" width="1920" height="73" filterUnits="userSpaceOnUse" color-interpolation-filters="sRGB">
<feFlood flood-opacity="0" result="BackgroundImageFix"/>
<feBlend mode="normal" in="SourceGraphic" in2="BackgroundImageFix" result="shape"/>
<feColorMatrix in="SourceAlpha" type="matrix" values="0 0 0 0 0 0 0 0 0 0 0 0 0 0 0 0 0 0 127 0" result="hardAlpha"/>
<feOffset dy="4"/>
<feGaussianBlur stdDeviation="2"/>
<feComposite in2="hardAlpha" operator="arithmetic" k2="-1" k3="1"/>
<feColorMatrix type="matrix" values="0 0 0 0 0.4 0 0 0 0 0.2 0 0 0 0 0.933333 0 0 0 1 0"/>
<feBlend mode="normal" in2="shape" result="effect1_innerShadow_32_2878"/>
</filter>
</defs>
</svg>
