<svg width="168" height="120" viewBox="0 0 168 120" fill="none" xmlns="http://www.w3.org/2000/svg">
<path d="M42.2175 28.456C40.2122 27.3893 39.2095 25.7147 39.2095 23.432C39.2095 22.28 39.5082 21.2347 40.1055 20.296C40.7028 19.336 41.6095 18.5787 42.8255 18.024C44.0415 17.448 45.5348 17.16 47.3055 17.16C49.0762 17.16 50.5588 17.448 51.7535 18.024C52.9695 18.5787 53.8762 19.336 54.4735 20.296C55.0708 21.2347 55.3695 22.28 55.3695 23.432C55.3695 24.584 55.0922 25.5867 54.5375 26.44C54.0042 27.2933 53.2788 27.9653 52.3615 28.456C53.5135 29.0107 54.3988 29.7787 55.0175 30.76C55.6362 31.72 55.9455 32.8507 55.9455 34.152C55.9455 35.6667 55.5615 36.9787 54.7935 38.088C54.0255 39.176 52.9802 40.008 51.6575 40.584C50.3562 41.16 48.9055 41.448 47.3055 41.448C45.7055 41.448 44.2442 41.16 42.9215 40.584C41.6202 40.008 40.5855 39.176 39.8175 38.088C39.0495 36.9787 38.6655 35.6667 38.6655 34.152C38.6655 32.8293 38.9748 31.688 39.5935 30.728C40.2122 29.7467 41.0868 28.9893 42.2175 28.456ZM50.0575 24.264C50.0575 23.3893 49.8015 22.7173 49.2895 22.248C48.7988 21.7573 48.1375 21.512 47.3055 21.512C46.4735 21.512 45.8015 21.7573 45.2895 22.248C44.7988 22.7387 44.5535 23.4213 44.5535 24.296C44.5535 25.128 44.8095 25.7893 45.3215 26.28C45.8335 26.7493 46.4948 26.984 47.3055 26.984C48.1162 26.984 48.7775 26.7387 49.2895 26.248C49.8015 25.7573 50.0575 25.096 50.0575 24.264ZM47.3055 30.824C46.3028 30.824 45.4922 31.1013 44.8735 31.656C44.2548 32.1893 43.9455 32.936 43.9455 33.896C43.9455 34.792 44.2442 35.528 44.8415 36.104C45.4602 36.68 46.2815 36.968 47.3055 36.968C48.3295 36.968 49.1295 36.68 49.7055 36.104C50.3028 35.528 50.6015 34.792 50.6015 33.896C50.6015 32.9573 50.2922 32.2107 49.6735 31.656C49.0762 31.1013 48.2868 30.824 47.3055 30.824ZM65.0155 34.152C65.3355 35.8373 66.3168 36.68 67.9595 36.68C69.0902 36.68 69.8902 36.1787 70.3595 35.176C70.8288 34.1733 71.0635 32.5413 71.0635 30.28C70.5942 30.9413 69.9542 31.4533 69.1435 31.816C68.3328 32.1787 67.4262 32.36 66.4235 32.36C65.0582 32.36 63.8422 32.0827 62.7755 31.528C61.7088 30.952 60.8662 30.1093 60.2475 29C59.6502 27.8693 59.3515 26.504 59.3515 24.904C59.3515 23.3253 59.6715 21.9493 60.3115 20.776C60.9728 19.6027 61.9008 18.696 63.0955 18.056C64.3115 17.416 65.7408 17.096 67.3835 17.096C70.5408 17.096 72.7488 18.0773 74.0075 20.04C75.2662 22.0027 75.8955 24.8933 75.8955 28.712C75.8955 31.4853 75.6395 33.7787 75.1275 35.592C74.6368 37.384 73.7942 38.7493 72.5995 39.688C71.4262 40.6267 69.8155 41.096 67.7675 41.096C66.1462 41.096 64.7595 40.776 63.6075 40.136C62.4768 39.496 61.6022 38.6533 60.9835 37.608C60.3862 36.5627 60.0448 35.4107 59.9595 34.152H65.0155ZM67.6715 28.04C68.5675 28.04 69.2822 27.7733 69.8155 27.24C70.3488 26.6853 70.6155 25.9387 70.6155 25C70.6155 23.976 70.3382 23.1867 69.7835 22.632C69.2288 22.0773 68.4822 21.8 67.5435 21.8C66.6048 21.8 65.8582 22.088 65.3035 22.664C64.7702 23.2187 64.5035 23.9867 64.5035 24.968C64.5035 25.8853 64.7702 26.632 65.3035 27.208C65.8582 27.7627 66.6475 28.04 67.6715 28.04ZM84.703 34.152C85.023 35.8373 86.0043 36.68 87.647 36.68C88.7777 36.68 89.5777 36.1787 90.047 35.176C90.5163 34.1733 90.751 32.5413 90.751 30.28C90.2817 30.9413 89.6417 31.4533 88.831 31.816C88.0203 32.1787 87.1137 32.36 86.111 32.36C84.7457 32.36 83.5297 32.0827 82.463 31.528C81.3963 30.952 80.5537 30.1093 79.935 29C79.3377 27.8693 79.039 26.504 79.039 24.904C79.039 23.3253 79.359 21.9493 79.999 20.776C80.6603 19.6027 81.5883 18.696 82.783 18.056C83.999 17.416 85.4283 17.096 87.071 17.096C90.2283 17.096 92.4363 18.0773 93.695 20.04C94.9537 22.0027 95.583 24.8933 95.583 28.712C95.583 31.4853 95.327 33.7787 94.815 35.592C94.3243 37.384 93.4817 38.7493 92.287 39.688C91.1137 40.6267 89.503 41.096 87.455 41.096C85.8337 41.096 84.447 40.776 83.295 40.136C82.1643 39.496 81.2897 38.6533 80.671 37.608C80.0737 36.5627 79.7323 35.4107 79.647 34.152H84.703ZM87.359 28.04C88.255 28.04 88.9697 27.7733 89.503 27.24C90.0363 26.6853 90.303 25.9387 90.303 25C90.303 23.976 90.0257 23.1867 89.471 22.632C88.9163 22.0773 88.1697 21.8 87.231 21.8C86.2923 21.8 85.5457 22.088 84.991 22.664C84.4577 23.2187 84.191 23.9867 84.191 24.968C84.191 25.8853 84.4577 26.632 84.991 27.208C85.5457 27.7627 86.335 28.04 87.359 28.04Z" fill="white"/>
<path d="M22.9681 81.272V83.048H15.6961V88.688H21.6001V90.464H15.6961V98H13.5121V81.272H22.9681ZM31.3418 98.216C30.1098 98.216 28.9898 97.936 27.9818 97.376C26.9898 96.816 26.2058 96.024 25.6298 95C25.0698 93.96 24.7898 92.76 24.7898 91.4C24.7898 90.056 25.0778 88.872 25.6538 87.848C26.2458 86.808 27.0458 86.016 28.0538 85.472C29.0618 84.912 30.1898 84.632 31.4378 84.632C32.6858 84.632 33.8138 84.912 34.8218 85.472C35.8298 86.016 36.6218 86.8 37.1978 87.824C37.7898 88.848 38.0858 90.04 38.0858 91.4C38.0858 92.76 37.7818 93.96 37.1738 95C36.5818 96.024 35.7738 96.816 34.7498 97.376C33.7258 97.936 32.5898 98.216 31.3418 98.216ZM31.3418 96.296C32.1258 96.296 32.8618 96.112 33.5498 95.744C34.2378 95.376 34.7898 94.824 35.2058 94.088C35.6378 93.352 35.8538 92.456 35.8538 91.4C35.8538 90.344 35.6458 89.448 35.2298 88.712C34.8138 87.976 34.2698 87.432 33.5978 87.08C32.9258 86.712 32.1978 86.528 31.4138 86.528C30.6138 86.528 29.8778 86.712 29.2058 87.08C28.5498 87.432 28.0218 87.976 27.6218 88.712C27.2218 89.448 27.0218 90.344 27.0218 91.4C27.0218 92.472 27.2138 93.376 27.5978 94.112C27.9978 94.848 28.5258 95.4 29.1818 95.768C29.8378 96.12 30.5578 96.296 31.3418 96.296ZM43.1414 80.24V98H40.9574V80.24H43.1414ZM49.0476 80.24V98H46.8636V80.24H49.0476ZM58.5059 98.216C57.2739 98.216 56.1539 97.936 55.1459 97.376C54.1539 96.816 53.3699 96.024 52.7939 95C52.2339 93.96 51.9539 92.76 51.9539 91.4C51.9539 90.056 52.2419 88.872 52.8179 87.848C53.4099 86.808 54.2099 86.016 55.2179 85.472C56.2259 84.912 57.3539 84.632 58.6019 84.632C59.8499 84.632 60.9779 84.912 61.9859 85.472C62.9939 86.016 63.7859 86.8 64.3619 87.824C64.9539 88.848 65.2499 90.04 65.2499 91.4C65.2499 92.76 64.9459 93.96 64.3379 95C63.7459 96.024 62.9379 96.816 61.9139 97.376C60.8899 97.936 59.7539 98.216 58.5059 98.216ZM58.5059 96.296C59.2899 96.296 60.0259 96.112 60.7139 95.744C61.4019 95.376 61.9539 94.824 62.3699 94.088C62.8019 93.352 63.0179 92.456 63.0179 91.4C63.0179 90.344 62.8099 89.448 62.3939 88.712C61.9779 87.976 61.4339 87.432 60.7619 87.08C60.0899 86.712 59.3619 86.528 58.5779 86.528C57.7779 86.528 57.0419 86.712 56.3699 87.08C55.7139 87.432 55.1859 87.976 54.7859 88.712C54.3859 89.448 54.1859 90.344 54.1859 91.4C54.1859 92.472 54.3779 93.376 54.7619 94.112C55.1619 94.848 55.6899 95.4 56.3459 95.768C57.0019 96.12 57.7219 96.296 58.5059 96.296ZM85.6414 84.848L81.5374 98H79.2814L76.1134 87.56L72.9454 98H70.6894L66.5614 84.848H68.7934L71.8174 95.888L75.0814 84.848H77.3134L80.5054 95.912L83.4814 84.848H85.6414ZM99.8089 90.92C99.8089 91.336 99.7849 91.776 99.7369 92.24H89.2249C89.3049 93.536 89.7449 94.552 90.5449 95.288C91.3609 96.008 92.3449 96.368 93.4969 96.368C94.4409 96.368 95.2249 96.152 95.8489 95.72C96.4889 95.272 96.9369 94.68 97.1929 93.944H99.5449C99.1929 95.208 98.4889 96.24 97.4329 97.04C96.3769 97.824 95.0649 98.216 93.4969 98.216C92.2489 98.216 91.1289 97.936 90.1369 97.376C89.1609 96.816 88.3929 96.024 87.8329 95C87.2729 93.96 86.9929 92.76 86.9929 91.4C86.9929 90.04 87.2649 88.848 87.8089 87.824C88.3529 86.8 89.1129 86.016 90.0889 85.472C91.0809 84.912 92.2169 84.632 93.4969 84.632C94.7449 84.632 95.8489 84.904 96.8089 85.448C97.7689 85.992 98.5049 86.744 99.0169 87.704C99.5449 88.648 99.8089 89.72 99.8089 90.92ZM97.5529 90.464C97.5529 89.632 97.3689 88.92 97.0009 88.328C96.6329 87.72 96.1289 87.264 95.4889 86.96C94.8649 86.64 94.1689 86.48 93.4009 86.48C92.2969 86.48 91.3529 86.832 90.5689 87.536C89.8009 88.24 89.3609 89.216 89.2489 90.464H97.5529ZM104.876 86.984C105.26 86.232 105.804 85.648 106.508 85.232C107.228 84.816 108.1 84.608 109.124 84.608V86.864H108.548C106.1 86.864 104.876 88.192 104.876 90.848V98H102.692V84.848H104.876V86.984ZM116.301 98.216C115.293 98.216 114.389 98.048 113.589 97.712C112.789 97.36 112.157 96.88 111.693 96.272C111.229 95.648 110.973 94.936 110.925 94.136H113.181C113.245 94.792 113.549 95.328 114.093 95.744C114.653 96.16 115.381 96.368 116.277 96.368C117.109 96.368 117.765 96.184 118.245 95.816C118.725 95.448 118.965 94.984 118.965 94.424C118.965 93.848 118.709 93.424 118.197 93.152C117.685 92.864 116.893 92.584 115.821 92.312C114.845 92.056 114.045 91.8 113.421 91.544C112.813 91.272 112.285 90.88 111.837 90.368C111.405 89.84 111.189 89.152 111.189 88.304C111.189 87.632 111.389 87.016 111.789 86.456C112.189 85.896 112.757 85.456 113.493 85.136C114.229 84.8 115.069 84.632 116.013 84.632C117.469 84.632 118.645 85 119.541 85.736C120.437 86.472 120.917 87.48 120.981 88.76H118.797C118.749 88.072 118.469 87.52 117.957 87.104C117.461 86.688 116.789 86.48 115.941 86.48C115.157 86.48 114.533 86.648 114.069 86.984C113.605 87.32 113.373 87.76 113.373 88.304C113.373 88.736 113.509 89.096 113.781 89.384C114.069 89.656 114.421 89.88 114.837 90.056C115.269 90.216 115.861 90.4 116.613 90.608C117.557 90.864 118.325 91.12 118.917 91.376C119.509 91.616 120.013 91.984 120.429 92.48C120.861 92.976 121.085 93.624 121.101 94.424C121.101 95.144 120.901 95.792 120.501 96.368C120.101 96.944 119.533 97.4 118.797 97.736C118.077 98.056 117.245 98.216 116.301 98.216Z" fill="white"/>
<line x1="167" y1="100" x2="167" y2="20" stroke="white" stroke-width="2"/>
</svg>
