<svg width="1920" height="69" viewBox="0 0 1920 69" fill="none" xmlns="http://www.w3.org/2000/svg">
<g filter="url(#filter0_i_25_603)">
<rect width="1920" height="69" fill="#010314"/>
<path d="M205.558 29.144C206.501 29.144 207.341 29.3587 208.078 29.788C208.815 30.208 209.385 30.796 209.786 31.552C210.197 32.2987 210.402 33.1527 210.402 34.114C210.402 35.0753 210.197 35.934 209.786 36.69C209.385 37.4367 208.815 38.0247 208.078 38.454C207.341 38.874 206.501 39.084 205.558 39.084C204.606 39.084 203.761 38.874 203.024 38.454C202.287 38.0247 201.713 37.4367 201.302 36.69C200.891 35.934 200.686 35.0753 200.686 34.114C200.686 33.1527 200.891 32.2987 201.302 31.552C201.713 30.796 202.287 30.208 203.024 29.788C203.761 29.3587 204.606 29.144 205.558 29.144ZM205.558 29.704C204.69 29.704 203.934 29.8907 203.29 30.264C202.646 30.628 202.151 31.1413 201.806 31.804C201.461 32.4667 201.288 33.2367 201.288 34.114C201.288 34.982 201.461 35.752 201.806 36.424C202.151 37.0867 202.646 37.6047 203.29 37.978C203.934 38.3513 204.69 38.538 205.558 38.538C206.417 38.538 207.163 38.3513 207.798 37.978C208.442 37.6047 208.937 37.0867 209.282 36.424C209.627 35.752 209.8 34.982 209.8 34.114C209.8 33.2367 209.627 32.4667 209.282 31.804C208.937 31.1413 208.442 30.628 207.798 30.264C207.163 29.8907 206.417 29.704 205.558 29.704ZM205.53 30.866C204.97 30.866 204.457 30.9967 203.99 31.258C203.533 31.5193 203.169 31.8973 202.898 32.392C202.627 32.8773 202.492 33.4467 202.492 34.1C202.492 34.7533 202.627 35.3273 202.898 35.822C203.169 36.3073 203.533 36.6853 203.99 36.956C204.457 37.2173 204.97 37.348 205.53 37.348C206.23 37.348 206.837 37.1613 207.35 36.788C207.863 36.4053 208.213 35.8967 208.4 35.262H207.224C206.944 36.0367 206.379 36.424 205.53 36.424C204.97 36.424 204.513 36.2233 204.158 35.822C203.803 35.4207 203.626 34.8513 203.626 34.114C203.626 33.3673 203.803 32.7933 204.158 32.392C204.513 31.9907 204.97 31.79 205.53 31.79C205.941 31.79 206.295 31.8927 206.594 32.098C206.893 32.294 207.103 32.5787 207.224 32.952H208.4C208.223 32.2893 207.877 31.776 207.364 31.412C206.851 31.048 206.239 30.866 205.53 30.866ZM215.534 37.978C216.72 37.026 217.648 36.2467 218.32 35.64C218.992 35.024 219.557 34.3847 220.014 33.722C220.481 33.05 220.714 32.392 220.714 31.748C220.714 31.1413 220.565 30.6653 220.266 30.32C219.977 29.9653 219.506 29.788 218.852 29.788C218.218 29.788 217.723 29.9887 217.368 30.39C217.023 30.782 216.836 31.3093 216.808 31.972H215.576C215.614 30.9267 215.931 30.1193 216.528 29.55C217.126 28.9807 217.896 28.696 218.838 28.696C219.8 28.696 220.56 28.962 221.12 29.494C221.69 30.026 221.974 30.7587 221.974 31.692C221.974 32.4667 221.741 33.2227 221.274 33.96C220.817 34.688 220.294 35.332 219.706 35.892C219.118 36.4427 218.367 37.0867 217.452 37.824H222.268V38.888H215.534V37.978ZM223.741 33.834C223.741 32.2287 224.002 30.978 224.525 30.082C225.048 29.1767 225.962 28.724 227.269 28.724C228.566 28.724 229.476 29.1767 229.999 30.082C230.522 30.978 230.783 32.2287 230.783 33.834C230.783 35.4673 230.522 36.7367 229.999 37.642C229.476 38.5473 228.566 39 227.269 39C225.962 39 225.048 38.5473 224.525 37.642C224.002 36.7367 223.741 35.4673 223.741 33.834ZM229.523 33.834C229.523 33.022 229.467 32.336 229.355 31.776C229.252 31.2067 229.033 30.7493 228.697 30.404C228.37 30.0587 227.894 29.886 227.269 29.886C226.634 29.886 226.149 30.0587 225.813 30.404C225.486 30.7493 225.267 31.2067 225.155 31.776C225.052 32.336 225.001 33.022 225.001 33.834C225.001 34.674 225.052 35.3787 225.155 35.948C225.267 36.5173 225.486 36.9747 225.813 37.32C226.149 37.6653 226.634 37.838 227.269 37.838C227.894 37.838 228.37 37.6653 228.697 37.32C229.033 36.9747 229.252 36.5173 229.355 35.948C229.467 35.3787 229.523 34.674 229.523 33.834ZM232.378 37.978C233.563 37.026 234.492 36.2467 235.164 35.64C235.836 35.024 236.401 34.3847 236.858 33.722C237.325 33.05 237.558 32.392 237.558 31.748C237.558 31.1413 237.409 30.6653 237.11 30.32C236.821 29.9653 236.349 29.788 235.696 29.788C235.061 29.788 234.567 29.9887 234.212 30.39C233.867 30.782 233.68 31.3093 233.652 31.972H232.42C232.457 30.9267 232.775 30.1193 233.372 29.55C233.969 28.9807 234.739 28.696 235.682 28.696C236.643 28.696 237.404 28.962 237.964 29.494C238.533 30.026 238.818 30.7587 238.818 31.692C238.818 32.4667 238.585 33.2227 238.118 33.96C237.661 34.688 237.138 35.332 236.55 35.892C235.962 36.4427 235.211 37.0867 234.296 37.824H239.112V38.888H232.378V37.978ZM240.277 36.746V35.78L245.191 28.976H246.717V35.64H248.117V36.746H246.717V39H245.457V36.746H240.277ZM245.513 30.306L241.747 35.64H245.513V30.306ZM252.856 34.114C252.856 33.162 253.071 32.308 253.5 31.552C253.929 30.7867 254.513 30.1893 255.25 29.76C255.997 29.3307 256.823 29.116 257.728 29.116C258.792 29.116 259.721 29.3727 260.514 29.886C261.307 30.3993 261.886 31.1273 262.25 32.07H260.724C260.453 31.482 260.061 31.0293 259.548 30.712C259.044 30.3947 258.437 30.236 257.728 30.236C257.047 30.236 256.435 30.3947 255.894 30.712C255.353 31.0293 254.928 31.482 254.62 32.07C254.312 32.6487 254.158 33.33 254.158 34.114C254.158 34.8887 254.312 35.57 254.62 36.158C254.928 36.7367 255.353 37.1847 255.894 37.502C256.435 37.8193 257.047 37.978 257.728 37.978C258.437 37.978 259.044 37.824 259.548 37.516C260.061 37.1987 260.453 36.746 260.724 36.158H262.25C261.886 37.0913 261.307 37.8147 260.514 38.328C259.721 38.832 258.792 39.084 257.728 39.084C256.823 39.084 255.997 38.874 255.25 38.454C254.513 38.0247 253.929 37.432 253.5 36.676C253.071 35.92 252.856 35.066 252.856 34.114ZM265.42 28.64V39H264.146V28.64H265.42ZM268.25 30.082C268.007 30.082 267.802 29.998 267.634 29.83C267.466 29.662 267.382 29.4567 267.382 29.214C267.382 28.9713 267.466 28.766 267.634 28.598C267.802 28.43 268.007 28.346 268.25 28.346C268.483 28.346 268.679 28.43 268.838 28.598C269.006 28.766 269.09 28.9713 269.09 29.214C269.09 29.4567 269.006 29.662 268.838 29.83C268.679 29.998 268.483 30.082 268.25 30.082ZM268.866 31.328V39H267.592V31.328H268.866ZM270.561 35.15C270.561 34.3567 270.72 33.666 271.037 33.078C271.354 32.4807 271.793 32.0187 272.353 31.692C272.922 31.3653 273.571 31.202 274.299 31.202C275.242 31.202 276.016 31.4307 276.623 31.888C277.239 32.3453 277.645 32.98 277.841 33.792H276.469C276.338 33.3253 276.082 32.9567 275.699 32.686C275.326 32.4153 274.859 32.28 274.299 32.28C273.571 32.28 272.983 32.532 272.535 33.036C272.087 33.5307 271.863 34.2353 271.863 35.15C271.863 36.074 272.087 36.788 272.535 37.292C272.983 37.796 273.571 38.048 274.299 38.048C274.859 38.048 275.326 37.9173 275.699 37.656C276.072 37.3947 276.329 37.0213 276.469 36.536H277.841C277.636 37.32 277.225 37.95 276.609 38.426C275.993 38.8927 275.223 39.126 274.299 39.126C273.571 39.126 272.922 38.9627 272.353 38.636C271.793 38.3093 271.354 37.8473 271.037 37.25C270.72 36.6527 270.561 35.9527 270.561 35.15ZM283.825 39L280.815 35.612V39H279.541V28.64H280.815V34.73L283.769 31.328H285.547L281.935 35.15L285.561 39H283.825ZM290.002 34.114C290.002 33.162 290.217 32.308 290.646 31.552C291.076 30.7867 291.659 30.1893 292.396 29.76C293.143 29.3307 293.969 29.116 294.874 29.116C295.938 29.116 296.867 29.3727 297.66 29.886C298.454 30.3993 299.032 31.1273 299.396 32.07H297.87C297.6 31.482 297.208 31.0293 296.694 30.712C296.19 30.3947 295.584 30.236 294.874 30.236C294.193 30.236 293.582 30.3947 293.04 30.712C292.499 31.0293 292.074 31.482 291.766 32.07C291.458 32.6487 291.304 33.33 291.304 34.114C291.304 34.8887 291.458 35.57 291.766 36.158C292.074 36.7367 292.499 37.1847 293.04 37.502C293.582 37.8193 294.193 37.978 294.874 37.978C295.584 37.978 296.19 37.824 296.694 37.516C297.208 37.1987 297.6 36.746 297.87 36.158H299.396C299.032 37.0913 298.454 37.8147 297.66 38.328C296.867 38.832 295.938 39.084 294.874 39.084C293.969 39.084 293.143 38.874 292.396 38.454C291.659 38.0247 291.076 37.432 290.646 36.676C290.217 35.92 290.002 35.066 290.002 34.114ZM302.567 32.574C302.791 32.1353 303.108 31.7947 303.519 31.552C303.939 31.3093 304.448 31.188 305.045 31.188V32.504H304.709C303.281 32.504 302.567 33.2787 302.567 34.828V39H301.293V31.328H302.567V32.574ZM306.04 35.136C306.04 34.352 306.198 33.666 306.516 33.078C306.833 32.4807 307.267 32.0187 307.818 31.692C308.378 31.3653 308.998 31.202 309.68 31.202C310.352 31.202 310.935 31.3467 311.43 31.636C311.924 31.9253 312.293 32.2893 312.536 32.728V31.328H313.824V39H312.536V37.572C312.284 38.02 311.906 38.3933 311.402 38.692C310.907 38.9813 310.328 39.126 309.666 39.126C308.984 39.126 308.368 38.958 307.818 38.622C307.267 38.286 306.833 37.8147 306.516 37.208C306.198 36.6013 306.04 35.9107 306.04 35.136ZM312.536 35.15C312.536 34.5713 312.419 34.0673 312.186 33.638C311.952 33.2087 311.635 32.882 311.234 32.658C310.842 32.4247 310.408 32.308 309.932 32.308C309.456 32.308 309.022 32.42 308.63 32.644C308.238 32.868 307.925 33.1947 307.692 33.624C307.458 34.0533 307.342 34.5573 307.342 35.136C307.342 35.724 307.458 36.2373 307.692 36.676C307.925 37.1053 308.238 37.4367 308.63 37.67C309.022 37.894 309.456 38.006 309.932 38.006C310.408 38.006 310.842 37.894 311.234 37.67C311.635 37.4367 311.952 37.1053 312.186 36.676C312.419 36.2373 312.536 35.7287 312.536 35.15ZM319.098 32.378H317.488V39H316.214V32.378H315.22V31.328H316.214V30.782C316.214 29.9233 316.434 29.298 316.872 28.906C317.32 28.5047 318.034 28.304 319.014 28.304V29.368C318.454 29.368 318.058 29.48 317.824 29.704C317.6 29.9187 317.488 30.278 317.488 30.782V31.328H319.098V32.378ZM322.138 32.378V36.9C322.138 37.2733 322.217 37.5393 322.376 37.698C322.535 37.8473 322.81 37.922 323.202 37.922H324.14V39H322.992C322.283 39 321.751 38.8367 321.396 38.51C321.041 38.1833 320.864 37.6467 320.864 36.9V32.378H319.87V31.328H320.864V29.396H322.138V31.328H324.14V32.378H322.138ZM326.089 39.084C325.847 39.084 325.641 39 325.473 38.832C325.305 38.664 325.221 38.4587 325.221 38.216C325.221 37.9733 325.305 37.768 325.473 37.6C325.641 37.432 325.847 37.348 326.089 37.348C326.323 37.348 326.519 37.432 326.677 37.6C326.845 37.768 326.929 37.9733 326.929 38.216C326.929 38.4587 326.845 38.664 326.677 38.832C326.519 39 326.323 39.084 326.089 39.084ZM338.123 36.83H333.867L333.083 39H331.739L335.267 29.298H336.737L340.251 39H338.907L338.123 36.83ZM337.759 35.794L335.995 30.866L334.231 35.794H337.759ZM343.063 28.64V39H341.789V28.64H343.063ZM346.508 28.64V39H345.234V28.64H346.508ZM353.686 32.574C353.91 32.1353 354.227 31.7947 354.638 31.552C355.058 31.3093 355.567 31.188 356.164 31.188V32.504H355.828C354.4 32.504 353.686 33.2787 353.686 34.828V39H352.412V31.328H353.686V32.574ZM358.293 30.082C358.05 30.082 357.845 29.998 357.677 29.83C357.509 29.662 357.425 29.4567 357.425 29.214C357.425 28.9713 357.509 28.766 357.677 28.598C357.845 28.43 358.05 28.346 358.293 28.346C358.526 28.346 358.722 28.43 358.881 28.598C359.049 28.766 359.133 28.9713 359.133 29.214C359.133 29.4567 359.049 29.662 358.881 29.83C358.722 29.998 358.526 30.082 358.293 30.082ZM358.909 31.328V39H357.635V31.328H358.909ZM364.244 31.202C364.907 31.202 365.485 31.3467 365.98 31.636C366.484 31.9253 366.857 32.2893 367.1 32.728V31.328H368.388V39.168C368.388 39.868 368.239 40.4887 367.94 41.03C367.641 41.5807 367.212 42.01 366.652 42.318C366.101 42.626 365.457 42.78 364.72 42.78C363.712 42.78 362.872 42.542 362.2 42.066C361.528 41.59 361.131 40.9413 361.01 40.12H362.27C362.41 40.5867 362.699 40.96 363.138 41.24C363.577 41.5293 364.104 41.674 364.72 41.674C365.42 41.674 365.989 41.4547 366.428 41.016C366.876 40.5773 367.1 39.9613 367.1 39.168V37.558C366.848 38.006 366.475 38.3793 365.98 38.678C365.485 38.9767 364.907 39.126 364.244 39.126C363.563 39.126 362.942 38.958 362.382 38.622C361.831 38.286 361.397 37.8147 361.08 37.208C360.763 36.6013 360.604 35.9107 360.604 35.136C360.604 34.352 360.763 33.666 361.08 33.078C361.397 32.4807 361.831 32.0187 362.382 31.692C362.942 31.3653 363.563 31.202 364.244 31.202ZM367.1 35.15C367.1 34.5713 366.983 34.0673 366.75 33.638C366.517 33.2087 366.199 32.882 365.798 32.658C365.406 32.4247 364.972 32.308 364.496 32.308C364.02 32.308 363.586 32.42 363.194 32.644C362.802 32.868 362.489 33.1947 362.256 33.624C362.023 34.0533 361.906 34.5573 361.906 35.136C361.906 35.724 362.023 36.2373 362.256 36.676C362.489 37.1053 362.802 37.4367 363.194 37.67C363.586 37.894 364.02 38.006 364.496 38.006C364.972 38.006 365.406 37.894 365.798 37.67C366.199 37.4367 366.517 37.1053 366.75 36.676C366.983 36.2373 367.1 35.7287 367.1 35.15ZM374.349 31.188C374.928 31.188 375.45 31.314 375.917 31.566C376.384 31.8087 376.748 32.1773 377.009 32.672C377.28 33.1667 377.415 33.7687 377.415 34.478V39H376.155V34.66C376.155 33.8947 375.964 33.3113 375.581 32.91C375.198 32.4993 374.676 32.294 374.013 32.294C373.341 32.294 372.804 32.504 372.403 32.924C372.011 33.344 371.815 33.9553 371.815 34.758V39H370.541V28.64H371.815V32.42C372.067 32.028 372.412 31.7247 372.851 31.51C373.299 31.2953 373.798 31.188 374.349 31.188ZM381.05 32.378V36.9C381.05 37.2733 381.129 37.5393 381.288 37.698C381.447 37.8473 381.722 37.922 382.114 37.922H383.052V39H381.904C381.195 39 380.663 38.8367 380.308 38.51C379.953 38.1833 379.776 37.6467 379.776 36.9V32.378H378.782V31.328H379.776V29.396H381.05V31.328H383.052V32.378H381.05ZM387.312 39.126C386.724 39.126 386.196 39.028 385.73 38.832C385.263 38.6267 384.894 38.3467 384.624 37.992C384.353 37.628 384.204 37.2127 384.176 36.746H385.492C385.529 37.1287 385.706 37.4413 386.024 37.684C386.35 37.9267 386.775 38.048 387.298 38.048C387.783 38.048 388.166 37.9407 388.446 37.726C388.726 37.5113 388.866 37.2407 388.866 36.914C388.866 36.578 388.716 36.3307 388.418 36.172C388.119 36.004 387.657 35.8407 387.032 35.682C386.462 35.5327 385.996 35.3833 385.632 35.234C385.277 35.0753 384.969 34.8467 384.708 34.548C384.456 34.24 384.33 33.8387 384.33 33.344C384.33 32.952 384.446 32.5927 384.68 32.266C384.913 31.9393 385.244 31.6827 385.674 31.496C386.103 31.3 386.593 31.202 387.144 31.202C387.993 31.202 388.679 31.4167 389.202 31.846C389.724 32.2753 390.004 32.8633 390.042 33.61H388.768C388.74 33.2087 388.576 32.8867 388.278 32.644C387.988 32.4013 387.596 32.28 387.102 32.28C386.644 32.28 386.28 32.378 386.01 32.574C385.739 32.77 385.604 33.0267 385.604 33.344C385.604 33.596 385.683 33.806 385.842 33.974C386.01 34.1327 386.215 34.2633 386.458 34.366C386.71 34.4593 387.055 34.5667 387.494 34.688C388.044 34.8373 388.492 34.9867 388.838 35.136C389.183 35.276 389.477 35.4907 389.72 35.78C389.972 36.0693 390.102 36.4473 390.112 36.914C390.112 37.334 389.995 37.712 389.762 38.048C389.528 38.384 389.197 38.65 388.768 38.846C388.348 39.0327 387.862 39.126 387.312 39.126ZM396.916 32.574C397.14 32.1353 397.458 31.7947 397.868 31.552C398.288 31.3093 398.797 31.188 399.394 31.188V32.504H399.058C397.63 32.504 396.916 33.2787 396.916 34.828V39H395.642V31.328H396.916V32.574ZM407.865 34.87C407.865 35.1127 407.851 35.3693 407.823 35.64H401.691C401.738 36.396 401.994 36.9887 402.461 37.418C402.937 37.838 403.511 38.048 404.183 38.048C404.734 38.048 405.191 37.922 405.555 37.67C405.928 37.4087 406.19 37.0633 406.339 36.634H407.711C407.506 37.3713 407.095 37.9733 406.479 38.44C405.863 38.8973 405.098 39.126 404.183 39.126C403.455 39.126 402.802 38.9627 402.223 38.636C401.654 38.3093 401.206 37.8473 400.879 37.25C400.552 36.6433 400.389 35.9433 400.389 35.15C400.389 34.3567 400.548 33.6613 400.865 33.064C401.182 32.4667 401.626 32.0093 402.195 31.692C402.774 31.3653 403.436 31.202 404.183 31.202C404.911 31.202 405.555 31.3607 406.115 31.678C406.675 31.9953 407.104 32.434 407.403 32.994C407.711 33.5447 407.865 34.17 407.865 34.87ZM406.549 34.604C406.549 34.1187 406.442 33.7033 406.227 33.358C406.012 33.0033 405.718 32.7373 405.345 32.56C404.981 32.3733 404.575 32.28 404.127 32.28C403.483 32.28 402.932 32.4853 402.475 32.896C402.027 33.3067 401.77 33.876 401.705 34.604H406.549ZM412.263 39.126C411.675 39.126 411.147 39.028 410.681 38.832C410.214 38.6267 409.845 38.3467 409.575 37.992C409.304 37.628 409.155 37.2127 409.127 36.746H410.443C410.48 37.1287 410.657 37.4413 410.975 37.684C411.301 37.9267 411.726 38.048 412.249 38.048C412.734 38.048 413.117 37.9407 413.397 37.726C413.677 37.5113 413.817 37.2407 413.817 36.914C413.817 36.578 413.667 36.3307 413.369 36.172C413.07 36.004 412.608 35.8407 411.983 35.682C411.413 35.5327 410.947 35.3833 410.583 35.234C410.228 35.0753 409.92 34.8467 409.659 34.548C409.407 34.24 409.281 33.8387 409.281 33.344C409.281 32.952 409.397 32.5927 409.631 32.266C409.864 31.9393 410.195 31.6827 410.625 31.496C411.054 31.3 411.544 31.202 412.095 31.202C412.944 31.202 413.63 31.4167 414.153 31.846C414.675 32.2753 414.955 32.8633 414.993 33.61H413.719C413.691 33.2087 413.527 32.8867 413.229 32.644C412.939 32.4013 412.547 32.28 412.053 32.28C411.595 32.28 411.231 32.378 410.961 32.574C410.69 32.77 410.555 33.0267 410.555 33.344C410.555 33.596 410.634 33.806 410.793 33.974C410.961 34.1327 411.166 34.2633 411.409 34.366C411.661 34.4593 412.006 34.5667 412.445 34.688C412.995 34.8373 413.443 34.9867 413.789 35.136C414.134 35.276 414.428 35.4907 414.671 35.78C414.923 36.0693 415.053 36.4473 415.063 36.914C415.063 37.334 414.946 37.712 414.713 38.048C414.479 38.384 414.148 38.65 413.719 38.846C413.299 39.0327 412.813 39.126 412.263 39.126ZM423.861 34.87C423.861 35.1127 423.847 35.3693 423.819 35.64H417.687C417.734 36.396 417.991 36.9887 418.457 37.418C418.933 37.838 419.507 38.048 420.179 38.048C420.73 38.048 421.187 37.922 421.551 37.67C421.925 37.4087 422.186 37.0633 422.335 36.634H423.707C423.502 37.3713 423.091 37.9733 422.475 38.44C421.859 38.8973 421.094 39.126 420.179 39.126C419.451 39.126 418.798 38.9627 418.219 38.636C417.65 38.3093 417.202 37.8473 416.875 37.25C416.549 36.6433 416.385 35.9433 416.385 35.15C416.385 34.3567 416.544 33.6613 416.861 33.064C417.179 32.4667 417.622 32.0093 418.191 31.692C418.77 31.3653 419.433 31.202 420.179 31.202C420.907 31.202 421.551 31.3607 422.111 31.678C422.671 31.9953 423.101 32.434 423.399 32.994C423.707 33.5447 423.861 34.17 423.861 34.87ZM422.545 34.604C422.545 34.1187 422.438 33.7033 422.223 33.358C422.009 33.0033 421.715 32.7373 421.341 32.56C420.977 32.3733 420.571 32.28 420.123 32.28C419.479 32.28 418.929 32.4853 418.471 32.896C418.023 33.3067 417.767 33.876 417.701 34.604H422.545ZM426.817 32.574C427.041 32.1353 427.358 31.7947 427.769 31.552C428.189 31.3093 428.698 31.188 429.295 31.188V32.504H428.959C427.531 32.504 426.817 33.2787 426.817 34.828V39H425.543V31.328H426.817V32.574ZM433.622 37.824L436.002 31.328H437.36L434.35 39H432.866L429.856 31.328H431.228L433.622 37.824ZM445.613 34.87C445.613 35.1127 445.599 35.3693 445.571 35.64H439.439C439.486 36.396 439.742 36.9887 440.209 37.418C440.685 37.838 441.259 38.048 441.931 38.048C442.482 38.048 442.939 37.922 443.303 37.67C443.676 37.4087 443.938 37.0633 444.087 36.634H445.459C445.254 37.3713 444.843 37.9733 444.227 38.44C443.611 38.8973 442.846 39.126 441.931 39.126C441.203 39.126 440.55 38.9627 439.971 38.636C439.402 38.3093 438.954 37.8473 438.627 37.25C438.3 36.6433 438.137 35.9433 438.137 35.15C438.137 34.3567 438.296 33.6613 438.613 33.064C438.93 32.4667 439.374 32.0093 439.943 31.692C440.522 31.3653 441.184 31.202 441.931 31.202C442.659 31.202 443.303 31.3607 443.863 31.678C444.423 31.9953 444.852 32.434 445.151 32.994C445.459 33.5447 445.613 34.17 445.613 34.87ZM444.297 34.604C444.297 34.1187 444.19 33.7033 443.975 33.358C443.76 33.0033 443.466 32.7373 443.093 32.56C442.729 32.3733 442.323 32.28 441.875 32.28C441.231 32.28 440.68 32.4853 440.223 32.896C439.775 33.3067 439.518 33.876 439.453 34.604H444.297ZM446.819 35.136C446.819 34.352 446.977 33.666 447.295 33.078C447.612 32.4807 448.046 32.0187 448.597 31.692C449.157 31.3653 449.782 31.202 450.473 31.202C451.07 31.202 451.625 31.342 452.139 31.622C452.652 31.8927 453.044 32.252 453.315 32.7V28.64H454.603V39H453.315V37.558C453.063 38.0153 452.689 38.3933 452.195 38.692C451.7 38.9813 451.121 39.126 450.459 39.126C449.777 39.126 449.157 38.958 448.597 38.622C448.046 38.286 447.612 37.8147 447.295 37.208C446.977 36.6013 446.819 35.9107 446.819 35.136ZM453.315 35.15C453.315 34.5713 453.198 34.0673 452.965 33.638C452.731 33.2087 452.414 32.882 452.013 32.658C451.621 32.4247 451.187 32.308 450.711 32.308C450.235 32.308 449.801 32.42 449.409 32.644C449.017 32.868 448.704 33.1947 448.471 33.624C448.237 34.0533 448.121 34.5573 448.121 35.136C448.121 35.724 448.237 36.2373 448.471 36.676C448.704 37.1053 449.017 37.4367 449.409 37.67C449.801 37.894 450.235 38.006 450.711 38.006C451.187 38.006 451.621 37.894 452.013 37.67C452.414 37.4367 452.731 37.1053 452.965 36.676C453.198 36.2373 453.315 35.7287 453.315 35.15ZM457.162 39.084C456.919 39.084 456.714 39 456.546 38.832C456.378 38.664 456.294 38.4587 456.294 38.216C456.294 37.9733 456.378 37.768 456.546 37.6C456.714 37.432 456.919 37.348 457.162 37.348C457.395 37.348 457.591 37.432 457.75 37.6C457.918 37.768 458.002 37.9733 458.002 38.216C458.002 38.4587 457.918 38.664 457.75 38.832C457.591 39 457.395 39.084 457.162 39.084Z" fill="#77798F"/>
<path d="M1397.08 29.242V30.278H1394.42V39H1393.15V30.278H1390.48V29.242H1397.08ZM1405.65 34.87C1405.65 35.1127 1405.64 35.3693 1405.61 35.64H1399.48C1399.52 36.396 1399.78 36.9887 1400.25 37.418C1400.72 37.838 1401.3 38.048 1401.97 38.048C1402.52 38.048 1402.98 37.922 1403.34 37.67C1403.72 37.4087 1403.98 37.0633 1404.13 36.634H1405.5C1405.29 37.3713 1404.88 37.9733 1404.27 38.44C1403.65 38.8973 1402.88 39.126 1401.97 39.126C1401.24 39.126 1400.59 38.9627 1400.01 38.636C1399.44 38.3093 1398.99 37.8473 1398.67 37.25C1398.34 36.6433 1398.18 35.9433 1398.18 35.15C1398.18 34.3567 1398.33 33.6613 1398.65 33.064C1398.97 32.4667 1399.41 32.0093 1399.98 31.692C1400.56 31.3653 1401.22 31.202 1401.97 31.202C1402.7 31.202 1403.34 31.3607 1403.9 31.678C1404.46 31.9953 1404.89 32.434 1405.19 32.994C1405.5 33.5447 1405.65 34.17 1405.65 34.87ZM1404.34 34.604C1404.34 34.1187 1404.23 33.7033 1404.01 33.358C1403.8 33.0033 1403.51 32.7373 1403.13 32.56C1402.77 32.3733 1402.36 32.28 1401.91 32.28C1401.27 32.28 1400.72 32.4853 1400.26 32.896C1399.81 33.3067 1399.56 33.876 1399.49 34.604H1404.34ZM1408.61 32.574C1408.83 32.1353 1409.15 31.7947 1409.56 31.552C1409.98 31.3093 1410.49 31.188 1411.09 31.188V32.504H1410.75C1409.32 32.504 1408.61 33.2787 1408.61 34.828V39H1407.33V31.328H1408.61V32.574ZM1421.78 31.188C1422.38 31.188 1422.91 31.314 1423.38 31.566C1423.85 31.8087 1424.21 32.1773 1424.48 32.672C1424.76 33.1667 1424.89 33.7687 1424.89 34.478V39H1423.63V34.66C1423.63 33.8947 1423.44 33.3113 1423.06 32.91C1422.68 32.4993 1422.17 32.294 1421.53 32.294C1420.87 32.294 1420.34 32.5087 1419.95 32.938C1419.56 33.358 1419.36 33.9693 1419.36 34.772V39H1418.1V34.66C1418.1 33.8947 1417.91 33.3113 1417.53 32.91C1417.15 32.4993 1416.64 32.294 1416 32.294C1415.34 32.294 1414.81 32.5087 1414.42 32.938C1414.03 33.358 1413.83 33.9693 1413.83 34.772V39H1412.56V31.328H1413.83V32.434C1414.08 32.0327 1414.42 31.7247 1414.84 31.51C1415.27 31.2953 1415.74 31.188 1416.25 31.188C1416.9 31.188 1417.47 31.3327 1417.96 31.622C1418.46 31.9113 1418.82 32.336 1419.07 32.896C1419.28 32.3547 1419.64 31.9347 1420.13 31.636C1420.63 31.3373 1421.18 31.188 1421.78 31.188ZM1429.7 39.126C1429.11 39.126 1428.58 39.028 1428.11 38.832C1427.65 38.6267 1427.28 38.3467 1427.01 37.992C1426.74 37.628 1426.59 37.2127 1426.56 36.746H1427.88C1427.91 37.1287 1428.09 37.4413 1428.41 37.684C1428.74 37.9267 1429.16 38.048 1429.68 38.048C1430.17 38.048 1430.55 37.9407 1430.83 37.726C1431.11 37.5113 1431.25 37.2407 1431.25 36.914C1431.25 36.578 1431.1 36.3307 1430.8 36.172C1430.5 36.004 1430.04 35.8407 1429.42 35.682C1428.85 35.5327 1428.38 35.3833 1428.02 35.234C1427.66 35.0753 1427.35 34.8467 1427.09 34.548C1426.84 34.24 1426.71 33.8387 1426.71 33.344C1426.71 32.952 1426.83 32.5927 1427.06 32.266C1427.3 31.9393 1427.63 31.6827 1428.06 31.496C1428.49 31.3 1428.98 31.202 1429.53 31.202C1430.38 31.202 1431.06 31.4167 1431.59 31.846C1432.11 32.2753 1432.39 32.8633 1432.43 33.61H1431.15C1431.12 33.2087 1430.96 32.8867 1430.66 32.644C1430.37 32.4013 1429.98 32.28 1429.49 32.28C1429.03 32.28 1428.67 32.378 1428.39 32.574C1428.12 32.77 1427.99 33.0267 1427.99 33.344C1427.99 33.596 1428.07 33.806 1428.23 33.974C1428.39 34.1327 1428.6 34.2633 1428.84 34.366C1429.09 34.4593 1429.44 34.5667 1429.88 34.688C1430.43 34.8373 1430.88 34.9867 1431.22 35.136C1431.57 35.276 1431.86 35.4907 1432.1 35.78C1432.36 36.0693 1432.49 36.4473 1432.5 36.914C1432.5 37.334 1432.38 37.712 1432.15 38.048C1431.91 38.384 1431.58 38.65 1431.15 38.846C1430.73 39.0327 1430.25 39.126 1429.7 39.126ZM1441.37 39.126C1440.65 39.126 1440 38.9627 1439.41 38.636C1438.83 38.3093 1438.38 37.8473 1438.04 37.25C1437.71 36.6433 1437.55 35.9433 1437.55 35.15C1437.55 34.366 1437.72 33.6753 1438.06 33.078C1438.4 32.4713 1438.87 32.0093 1439.46 31.692C1440.04 31.3653 1440.7 31.202 1441.43 31.202C1442.16 31.202 1442.82 31.3653 1443.4 31.692C1443.99 32.0093 1444.45 32.4667 1444.79 33.064C1445.13 33.6613 1445.31 34.3567 1445.31 35.15C1445.31 35.9433 1445.13 36.6433 1444.78 37.25C1444.43 37.8473 1443.96 38.3093 1443.36 38.636C1442.76 38.9627 1442.1 39.126 1441.37 39.126ZM1441.37 38.006C1441.83 38.006 1442.26 37.8987 1442.66 37.684C1443.06 37.4693 1443.38 37.1473 1443.63 36.718C1443.88 36.2887 1444.01 35.766 1444.01 35.15C1444.01 34.534 1443.88 34.0113 1443.64 33.582C1443.4 33.1527 1443.08 32.8353 1442.69 32.63C1442.3 32.4153 1441.87 32.308 1441.42 32.308C1440.95 32.308 1440.52 32.4153 1440.13 32.63C1439.74 32.8353 1439.44 33.1527 1439.2 33.582C1438.97 34.0113 1438.85 34.534 1438.85 35.15C1438.85 35.7753 1438.97 36.3027 1439.19 36.732C1439.42 37.1613 1439.73 37.4833 1440.11 37.698C1440.5 37.9033 1440.92 38.006 1441.37 38.006ZM1450.1 32.378H1448.49V39H1447.22V32.378H1446.23V31.328H1447.22V30.782C1447.22 29.9233 1447.44 29.298 1447.88 28.906C1448.33 28.5047 1449.04 28.304 1450.02 28.304V29.368C1449.46 29.368 1449.06 29.48 1448.83 29.704C1448.61 29.9187 1448.49 30.278 1448.49 30.782V31.328H1450.1V32.378ZM1458.42 39.098C1457.77 39.098 1457.19 38.986 1456.68 38.762C1456.18 38.5287 1455.78 38.2113 1455.49 37.81C1455.2 37.3993 1455.05 36.928 1455.04 36.396H1456.4C1456.45 36.8533 1456.63 37.2407 1456.96 37.558C1457.3 37.866 1457.78 38.02 1458.42 38.02C1459.02 38.02 1459.5 37.8707 1459.84 37.572C1460.2 37.264 1460.38 36.872 1460.38 36.396C1460.38 36.0227 1460.27 35.7193 1460.07 35.486C1459.86 35.2527 1459.61 35.0753 1459.3 34.954C1458.99 34.8327 1458.57 34.702 1458.05 34.562C1457.41 34.394 1456.89 34.226 1456.5 34.058C1456.12 33.89 1455.78 33.6287 1455.5 33.274C1455.23 32.91 1455.1 32.4247 1455.1 31.818C1455.1 31.286 1455.23 30.8147 1455.5 30.404C1455.77 29.9933 1456.15 29.676 1456.64 29.452C1457.13 29.228 1457.7 29.116 1458.33 29.116C1459.25 29.116 1459.99 29.3447 1460.57 29.802C1461.16 30.2593 1461.49 30.866 1461.57 31.622H1460.17C1460.12 31.2487 1459.92 30.922 1459.58 30.642C1459.23 30.3527 1458.78 30.208 1458.21 30.208C1457.67 30.208 1457.24 30.348 1456.9 30.628C1456.57 30.8987 1456.4 31.2813 1456.4 31.776C1456.4 32.1307 1456.5 32.42 1456.69 32.644C1456.9 32.868 1457.15 33.0407 1457.44 33.162C1457.73 33.274 1458.15 33.4047 1458.68 33.554C1459.33 33.7313 1459.84 33.9087 1460.24 34.086C1460.63 34.254 1460.96 34.52 1461.24 34.884C1461.52 35.2387 1461.66 35.724 1461.66 36.34C1461.66 36.816 1461.54 37.264 1461.29 37.684C1461.03 38.104 1460.66 38.4447 1460.17 38.706C1459.67 38.9673 1459.09 39.098 1458.42 39.098ZM1470.54 34.87C1470.54 35.1127 1470.52 35.3693 1470.5 35.64H1464.36C1464.41 36.396 1464.67 36.9887 1465.13 37.418C1465.61 37.838 1466.18 38.048 1466.86 38.048C1467.41 38.048 1467.86 37.922 1468.23 37.67C1468.6 37.4087 1468.86 37.0633 1469.01 36.634H1470.38C1470.18 37.3713 1469.77 37.9733 1469.15 38.44C1468.54 38.8973 1467.77 39.126 1466.86 39.126C1466.13 39.126 1465.48 38.9627 1464.9 38.636C1464.33 38.3093 1463.88 37.8473 1463.55 37.25C1463.23 36.6433 1463.06 35.9433 1463.06 35.15C1463.06 34.3567 1463.22 33.6613 1463.54 33.064C1463.86 32.4667 1464.3 32.0093 1464.87 31.692C1465.45 31.3653 1466.11 31.202 1466.86 31.202C1467.58 31.202 1468.23 31.3607 1468.79 31.678C1469.35 31.9953 1469.78 32.434 1470.08 32.994C1470.38 33.5447 1470.54 34.17 1470.54 34.87ZM1469.22 34.604C1469.22 34.1187 1469.12 33.7033 1468.9 33.358C1468.69 33.0033 1468.39 32.7373 1468.02 32.56C1467.65 32.3733 1467.25 32.28 1466.8 32.28C1466.16 32.28 1465.61 32.4853 1465.15 32.896C1464.7 33.3067 1464.44 33.876 1464.38 34.604H1469.22ZM1473.49 32.574C1473.72 32.1353 1474.04 31.7947 1474.45 31.552C1474.87 31.3093 1475.38 31.188 1475.97 31.188V32.504H1475.64C1474.21 32.504 1473.49 33.2787 1473.49 34.828V39H1472.22V31.328H1473.49V32.574ZM1480.3 37.824L1482.68 31.328H1484.04L1481.03 39H1479.54L1476.53 31.328H1477.91L1480.3 37.824ZM1485.95 30.082C1485.71 30.082 1485.5 29.998 1485.33 29.83C1485.16 29.662 1485.08 29.4567 1485.08 29.214C1485.08 28.9713 1485.16 28.766 1485.33 28.598C1485.5 28.43 1485.71 28.346 1485.95 28.346C1486.18 28.346 1486.38 28.43 1486.54 28.598C1486.7 28.766 1486.79 28.9713 1486.79 29.214C1486.79 29.4567 1486.7 29.662 1486.54 29.83C1486.38 29.998 1486.18 30.082 1485.95 30.082ZM1486.56 31.328V39H1485.29V31.328H1486.56ZM1488.26 35.15C1488.26 34.3567 1488.42 33.666 1488.74 33.078C1489.05 32.4807 1489.49 32.0187 1490.05 31.692C1490.62 31.3653 1491.27 31.202 1492 31.202C1492.94 31.202 1493.72 31.4307 1494.32 31.888C1494.94 32.3453 1495.34 32.98 1495.54 33.792H1494.17C1494.04 33.3253 1493.78 32.9567 1493.4 32.686C1493.02 32.4153 1492.56 32.28 1492 32.28C1491.27 32.28 1490.68 32.532 1490.23 33.036C1489.79 33.5307 1489.56 34.2353 1489.56 35.15C1489.56 36.074 1489.79 36.788 1490.23 37.292C1490.68 37.796 1491.27 38.048 1492 38.048C1492.56 38.048 1493.02 37.9173 1493.4 37.656C1493.77 37.3947 1494.03 37.0213 1494.17 36.536H1495.54C1495.33 37.32 1494.92 37.95 1494.31 38.426C1493.69 38.8927 1492.92 39.126 1492 39.126C1491.27 39.126 1490.62 38.9627 1490.05 38.636C1489.49 38.3093 1489.05 37.8473 1488.74 37.25C1488.42 36.6527 1488.26 35.9527 1488.26 35.15ZM1504.24 34.87C1504.24 35.1127 1504.23 35.3693 1504.2 35.64H1498.07C1498.11 36.396 1498.37 36.9887 1498.84 37.418C1499.31 37.838 1499.89 38.048 1500.56 38.048C1501.11 38.048 1501.57 37.922 1501.93 37.67C1502.3 37.4087 1502.56 37.0633 1502.71 36.634H1504.09C1503.88 37.3713 1503.47 37.9733 1502.85 38.44C1502.24 38.8973 1501.47 39.126 1500.56 39.126C1499.83 39.126 1499.18 38.9627 1498.6 38.636C1498.03 38.3093 1497.58 37.8473 1497.25 37.25C1496.93 36.6433 1496.76 35.9433 1496.76 35.15C1496.76 34.3567 1496.92 33.6613 1497.24 33.064C1497.56 32.4667 1498 32.0093 1498.57 31.692C1499.15 31.3653 1499.81 31.202 1500.56 31.202C1501.29 31.202 1501.93 31.3607 1502.49 31.678C1503.05 31.9953 1503.48 32.434 1503.78 32.994C1504.09 33.5447 1504.24 34.17 1504.24 34.87ZM1502.92 34.604C1502.92 34.1187 1502.82 33.7033 1502.6 33.358C1502.39 33.0033 1502.09 32.7373 1501.72 32.56C1501.36 32.3733 1500.95 32.28 1500.5 32.28C1499.86 32.28 1499.31 32.4853 1498.85 32.896C1498.4 33.3067 1498.15 33.876 1498.08 34.604H1502.92Z" fill="#77798F"/>
<path d="M1544.6 32.098C1544.6 32.91 1544.32 33.5867 1543.76 34.128C1543.21 34.66 1542.37 34.926 1541.23 34.926H1539.35V39H1538.08V29.242H1541.23C1542.33 29.242 1543.16 29.508 1543.73 30.04C1544.31 30.572 1544.6 31.258 1544.6 32.098ZM1541.23 33.876C1541.94 33.876 1542.46 33.722 1542.8 33.414C1543.13 33.106 1543.3 32.6673 1543.3 32.098C1543.3 30.894 1542.61 30.292 1541.23 30.292H1539.35V33.876H1541.23ZM1547.46 32.574C1547.68 32.1353 1548 31.7947 1548.41 31.552C1548.83 31.3093 1549.34 31.188 1549.94 31.188V32.504H1549.6C1548.17 32.504 1547.46 33.2787 1547.46 34.828V39H1546.19V31.328H1547.46V32.574ZM1552.07 30.082C1551.82 30.082 1551.62 29.998 1551.45 29.83C1551.28 29.662 1551.2 29.4567 1551.2 29.214C1551.2 28.9713 1551.28 28.766 1551.45 28.598C1551.62 28.43 1551.82 28.346 1552.07 28.346C1552.3 28.346 1552.5 28.43 1552.65 28.598C1552.82 28.766 1552.91 28.9713 1552.91 29.214C1552.91 29.4567 1552.82 29.662 1552.65 29.83C1552.5 29.998 1552.3 30.082 1552.07 30.082ZM1552.68 31.328V39H1551.41V31.328H1552.68ZM1557.71 37.824L1560.09 31.328H1561.45L1558.44 39H1556.95L1553.94 31.328H1555.32L1557.71 37.824ZM1562.23 35.136C1562.23 34.352 1562.38 33.666 1562.7 33.078C1563.02 32.4807 1563.45 32.0187 1564 31.692C1564.56 31.3653 1565.18 31.202 1565.87 31.202C1566.54 31.202 1567.12 31.3467 1567.62 31.636C1568.11 31.9253 1568.48 32.2893 1568.72 32.728V31.328H1570.01V39H1568.72V37.572C1568.47 38.02 1568.09 38.3933 1567.59 38.692C1567.09 38.9813 1566.51 39.126 1565.85 39.126C1565.17 39.126 1564.55 38.958 1564 38.622C1563.45 38.286 1563.02 37.8147 1562.7 37.208C1562.38 36.6013 1562.23 35.9107 1562.23 35.136ZM1568.72 35.15C1568.72 34.5713 1568.6 34.0673 1568.37 33.638C1568.14 33.2087 1567.82 32.882 1567.42 32.658C1567.03 32.4247 1566.59 32.308 1566.12 32.308C1565.64 32.308 1565.21 32.42 1564.82 32.644C1564.42 32.868 1564.11 33.1947 1563.88 33.624C1563.64 34.0533 1563.53 34.5573 1563.53 35.136C1563.53 35.724 1563.64 36.2373 1563.88 36.676C1564.11 37.1053 1564.42 37.4367 1564.82 37.67C1565.21 37.894 1565.64 38.006 1566.12 38.006C1566.59 38.006 1567.03 37.894 1567.42 37.67C1567.82 37.4367 1568.14 37.1053 1568.37 36.676C1568.6 36.2373 1568.72 35.7287 1568.72 35.15ZM1571.69 35.15C1571.69 34.3567 1571.84 33.666 1572.16 33.078C1572.48 32.4807 1572.92 32.0187 1573.48 31.692C1574.05 31.3653 1574.7 31.202 1575.42 31.202C1576.37 31.202 1577.14 31.4307 1577.75 31.888C1578.36 32.3453 1578.77 32.98 1578.97 33.792H1577.59C1577.46 33.3253 1577.21 32.9567 1576.82 32.686C1576.45 32.4153 1575.98 32.28 1575.42 32.28C1574.7 32.28 1574.11 32.532 1573.66 33.036C1573.21 33.5307 1572.99 34.2353 1572.99 35.15C1572.99 36.074 1573.21 36.788 1573.66 37.292C1574.11 37.796 1574.7 38.048 1575.42 38.048C1575.98 38.048 1576.45 37.9173 1576.82 37.656C1577.2 37.3947 1577.45 37.0213 1577.59 36.536H1578.97C1578.76 37.32 1578.35 37.95 1577.73 38.426C1577.12 38.8927 1576.35 39.126 1575.42 39.126C1574.7 39.126 1574.05 38.9627 1573.48 38.636C1572.92 38.3093 1572.48 37.8473 1572.16 37.25C1571.84 36.6527 1571.69 35.9527 1571.69 35.15ZM1587.27 31.328L1582.65 42.612H1581.34L1582.85 38.916L1579.76 31.328H1581.17L1583.58 37.544L1585.96 31.328H1587.27ZM1598.81 32.098C1598.81 32.91 1598.53 33.5867 1597.97 34.128C1597.42 34.66 1596.58 34.926 1595.44 34.926H1593.56V39H1592.29V29.242H1595.44C1596.54 29.242 1597.37 29.508 1597.94 30.04C1598.52 30.572 1598.81 31.258 1598.81 32.098ZM1595.44 33.876C1596.15 33.876 1596.67 33.722 1597 33.414C1597.34 33.106 1597.51 32.6673 1597.51 32.098C1597.51 30.894 1596.82 30.292 1595.44 30.292H1593.56V33.876H1595.44ZM1603.74 39.126C1603.02 39.126 1602.37 38.9627 1601.78 38.636C1601.2 38.3093 1600.74 37.8473 1600.41 37.25C1600.08 36.6433 1599.92 35.9433 1599.92 35.15C1599.92 34.366 1600.09 33.6753 1600.42 33.078C1600.77 32.4713 1601.23 32.0093 1601.82 31.692C1602.41 31.3653 1603.07 31.202 1603.8 31.202C1604.52 31.202 1605.18 31.3653 1605.77 31.692C1606.36 32.0093 1606.82 32.4667 1607.16 33.064C1607.5 33.6613 1607.67 34.3567 1607.67 35.15C1607.67 35.9433 1607.5 36.6433 1607.14 37.25C1606.8 37.8473 1606.33 38.3093 1605.73 38.636C1605.13 38.9627 1604.47 39.126 1603.74 39.126ZM1603.74 38.006C1604.2 38.006 1604.63 37.8987 1605.03 37.684C1605.43 37.4693 1605.75 37.1473 1605.99 36.718C1606.25 36.2887 1606.37 35.766 1606.37 35.15C1606.37 34.534 1606.25 34.0113 1606.01 33.582C1605.77 33.1527 1605.45 32.8353 1605.06 32.63C1604.66 32.4153 1604.24 32.308 1603.78 32.308C1603.32 32.308 1602.89 32.4153 1602.49 32.63C1602.11 32.8353 1601.8 33.1527 1601.57 33.582C1601.34 34.0113 1601.22 34.534 1601.22 35.15C1601.22 35.7753 1601.33 36.3027 1601.56 36.732C1601.79 37.1613 1602.1 37.4833 1602.48 37.698C1602.86 37.9033 1603.28 38.006 1603.74 38.006ZM1610.62 28.64V39H1609.35V28.64H1610.62ZM1613.45 30.082C1613.21 30.082 1613 29.998 1612.84 29.83C1612.67 29.662 1612.58 29.4567 1612.58 29.214C1612.58 28.9713 1612.67 28.766 1612.84 28.598C1613 28.43 1613.21 28.346 1613.45 28.346C1613.69 28.346 1613.88 28.43 1614.04 28.598C1614.21 28.766 1614.29 28.9713 1614.29 29.214C1614.29 29.4567 1614.21 29.662 1614.04 29.83C1613.88 29.998 1613.69 30.082 1613.45 30.082ZM1614.07 31.328V39H1612.79V31.328H1614.07ZM1615.76 35.15C1615.76 34.3567 1615.92 33.666 1616.24 33.078C1616.56 32.4807 1617 32.0187 1617.56 31.692C1618.13 31.3653 1618.77 31.202 1619.5 31.202C1620.44 31.202 1621.22 31.4307 1621.83 31.888C1622.44 32.3453 1622.85 32.98 1623.04 33.792H1621.67C1621.54 33.3253 1621.28 32.9567 1620.9 32.686C1620.53 32.4153 1620.06 32.28 1619.5 32.28C1618.77 32.28 1618.19 32.532 1617.74 33.036C1617.29 33.5307 1617.07 34.2353 1617.07 35.15C1617.07 36.074 1617.29 36.788 1617.74 37.292C1618.19 37.796 1618.77 38.048 1619.5 38.048C1620.06 38.048 1620.53 37.9173 1620.9 37.656C1621.28 37.3947 1621.53 37.0213 1621.67 36.536H1623.04C1622.84 37.32 1622.43 37.95 1621.81 38.426C1621.2 38.8927 1620.43 39.126 1619.5 39.126C1618.77 39.126 1618.13 38.9627 1617.56 38.636C1617 38.3093 1616.56 37.8473 1616.24 37.25C1615.92 36.6527 1615.76 35.9527 1615.76 35.15ZM1631.35 31.328L1626.73 42.612H1625.42L1626.93 38.916L1623.83 31.328H1625.25L1627.66 37.544L1630.04 31.328H1631.35Z" fill="#77798F"/>
<path d="M1664.6 34.114C1664.6 33.162 1664.82 32.308 1665.25 31.552C1665.68 30.7867 1666.26 30.1893 1667 29.76C1667.74 29.3307 1668.57 29.116 1669.47 29.116C1670.54 29.116 1671.47 29.3727 1672.26 29.886C1673.05 30.3993 1673.63 31.1273 1674 32.07H1672.47C1672.2 31.482 1671.81 31.0293 1671.29 30.712C1670.79 30.3947 1670.18 30.236 1669.47 30.236C1668.79 30.236 1668.18 30.3947 1667.64 30.712C1667.1 31.0293 1666.67 31.482 1666.37 32.07C1666.06 32.6487 1665.9 33.33 1665.9 34.114C1665.9 34.8887 1666.06 35.57 1666.37 36.158C1666.67 36.7367 1667.1 37.1847 1667.64 37.502C1668.18 37.8193 1668.79 37.978 1669.47 37.978C1670.18 37.978 1670.79 37.824 1671.29 37.516C1671.81 37.1987 1672.2 36.746 1672.47 36.158H1674C1673.63 37.0913 1673.05 37.8147 1672.26 38.328C1671.47 38.832 1670.54 39.084 1669.47 39.084C1668.57 39.084 1667.74 38.874 1667 38.454C1666.26 38.0247 1665.68 37.432 1665.25 36.676C1664.82 35.92 1664.6 35.066 1664.6 34.114ZM1679.24 39.126C1678.52 39.126 1677.87 38.9627 1677.28 38.636C1676.7 38.3093 1676.24 37.8473 1675.91 37.25C1675.58 36.6433 1675.42 35.9433 1675.42 35.15C1675.42 34.366 1675.58 33.6753 1675.92 33.078C1676.27 32.4713 1676.73 32.0093 1677.32 31.692C1677.91 31.3653 1678.57 31.202 1679.29 31.202C1680.02 31.202 1680.68 31.3653 1681.27 31.692C1681.86 32.0093 1682.32 32.4667 1682.65 33.064C1683 33.6613 1683.17 34.3567 1683.17 35.15C1683.17 35.9433 1683 36.6433 1682.64 37.25C1682.3 37.8473 1681.82 38.3093 1681.23 38.636C1680.63 38.9627 1679.97 39.126 1679.24 39.126ZM1679.24 38.006C1679.7 38.006 1680.13 37.8987 1680.53 37.684C1680.93 37.4693 1681.25 37.1473 1681.49 36.718C1681.74 36.2887 1681.87 35.766 1681.87 35.15C1681.87 34.534 1681.75 34.0113 1681.51 33.582C1681.26 33.1527 1680.95 32.8353 1680.55 32.63C1680.16 32.4153 1679.74 32.308 1679.28 32.308C1678.81 32.308 1678.38 32.4153 1677.99 32.63C1677.61 32.8353 1677.3 33.1527 1677.07 33.582C1676.84 34.0113 1676.72 34.534 1676.72 35.15C1676.72 35.7753 1676.83 36.3027 1677.05 36.732C1677.29 37.1613 1677.6 37.4833 1677.98 37.698C1678.36 37.9033 1678.78 38.006 1679.24 38.006ZM1688.19 39.126C1687.47 39.126 1686.82 38.9627 1686.23 38.636C1685.65 38.3093 1685.2 37.8473 1684.86 37.25C1684.53 36.6433 1684.37 35.9433 1684.37 35.15C1684.37 34.366 1684.54 33.6753 1684.88 33.078C1685.22 32.4713 1685.69 32.0093 1686.28 31.692C1686.86 31.3653 1687.52 31.202 1688.25 31.202C1688.98 31.202 1689.64 31.3653 1690.22 31.692C1690.81 32.0093 1691.27 32.4667 1691.61 33.064C1691.95 33.6613 1692.13 34.3567 1692.13 35.15C1692.13 35.9433 1691.95 36.6433 1691.6 37.25C1691.25 37.8473 1690.78 38.3093 1690.18 38.636C1689.58 38.9627 1688.92 39.126 1688.19 39.126ZM1688.19 38.006C1688.65 38.006 1689.08 37.8987 1689.48 37.684C1689.88 37.4693 1690.2 37.1473 1690.45 36.718C1690.7 36.2887 1690.83 35.766 1690.83 35.15C1690.83 34.534 1690.7 34.0113 1690.46 33.582C1690.22 33.1527 1689.9 32.8353 1689.51 32.63C1689.12 32.4153 1688.69 32.308 1688.24 32.308C1687.77 32.308 1687.34 32.4153 1686.95 32.63C1686.56 32.8353 1686.26 33.1527 1686.02 33.582C1685.79 34.0113 1685.67 34.534 1685.67 35.15C1685.67 35.7753 1685.79 36.3027 1686.01 36.732C1686.24 37.1613 1686.55 37.4833 1686.93 37.698C1687.32 37.9033 1687.74 38.006 1688.19 38.006ZM1698.09 39L1695.08 35.612V39H1693.8V28.64H1695.08V34.73L1698.03 31.328H1699.81L1696.2 35.15L1699.82 39H1698.09ZM1701.67 30.082C1701.42 30.082 1701.22 29.998 1701.05 29.83C1700.88 29.662 1700.8 29.4567 1700.8 29.214C1700.8 28.9713 1700.88 28.766 1701.05 28.598C1701.22 28.43 1701.42 28.346 1701.67 28.346C1701.9 28.346 1702.1 28.43 1702.25 28.598C1702.42 28.766 1702.51 28.9713 1702.51 29.214C1702.51 29.4567 1702.42 29.662 1702.25 29.83C1702.1 29.998 1701.9 30.082 1701.67 30.082ZM1702.28 31.328V39H1701.01V31.328H1702.28ZM1711.45 34.87C1711.45 35.1127 1711.44 35.3693 1711.41 35.64H1705.28C1705.33 36.396 1705.58 36.9887 1706.05 37.418C1706.53 37.838 1707.1 38.048 1707.77 38.048C1708.32 38.048 1708.78 37.922 1709.14 37.67C1709.52 37.4087 1709.78 37.0633 1709.93 36.634H1711.3C1711.09 37.3713 1710.68 37.9733 1710.07 38.44C1709.45 38.8973 1708.69 39.126 1707.77 39.126C1707.04 39.126 1706.39 38.9627 1705.81 38.636C1705.24 38.3093 1704.79 37.8473 1704.47 37.25C1704.14 36.6433 1703.98 35.9433 1703.98 35.15C1703.98 34.3567 1704.14 33.6613 1704.45 33.064C1704.77 32.4667 1705.21 32.0093 1705.78 31.692C1706.36 31.3653 1707.02 31.202 1707.77 31.202C1708.5 31.202 1709.14 31.3607 1709.7 31.678C1710.26 31.9953 1710.69 32.434 1710.99 32.994C1711.3 33.5447 1711.45 34.17 1711.45 34.87ZM1710.14 34.604C1710.14 34.1187 1710.03 33.7033 1709.82 33.358C1709.6 33.0033 1709.31 32.7373 1708.93 32.56C1708.57 32.3733 1708.16 32.28 1707.72 32.28C1707.07 32.28 1706.52 32.4853 1706.06 32.896C1705.62 33.3067 1705.36 33.876 1705.29 34.604H1710.14ZM1715.85 39.126C1715.26 39.126 1714.74 39.028 1714.27 38.832C1713.8 38.6267 1713.43 38.3467 1713.16 37.992C1712.89 37.628 1712.74 37.2127 1712.71 36.746H1714.03C1714.07 37.1287 1714.25 37.4413 1714.56 37.684C1714.89 37.9267 1715.31 38.048 1715.84 38.048C1716.32 38.048 1716.7 37.9407 1716.98 37.726C1717.26 37.5113 1717.4 37.2407 1717.4 36.914C1717.4 36.578 1717.26 36.3307 1716.96 36.172C1716.66 36.004 1716.2 35.8407 1715.57 35.682C1715 35.5327 1714.53 35.3833 1714.17 35.234C1713.82 35.0753 1713.51 34.8467 1713.25 34.548C1712.99 34.24 1712.87 33.8387 1712.87 33.344C1712.87 32.952 1712.99 32.5927 1713.22 32.266C1713.45 31.9393 1713.78 31.6827 1714.21 31.496C1714.64 31.3 1715.13 31.202 1715.68 31.202C1716.53 31.202 1717.22 31.4167 1717.74 31.846C1718.26 32.2753 1718.54 32.8633 1718.58 33.61H1717.31C1717.28 33.2087 1717.12 32.8867 1716.82 32.644C1716.53 32.4013 1716.14 32.28 1715.64 32.28C1715.18 32.28 1714.82 32.378 1714.55 32.574C1714.28 32.77 1714.14 33.0267 1714.14 33.344C1714.14 33.596 1714.22 33.806 1714.38 33.974C1714.55 34.1327 1714.75 34.2633 1715 34.366C1715.25 34.4593 1715.59 34.5667 1716.03 34.688C1716.58 34.8373 1717.03 34.9867 1717.38 35.136C1717.72 35.276 1718.02 35.4907 1718.26 35.78C1718.51 36.0693 1718.64 36.4473 1718.65 36.914C1718.65 37.334 1718.53 37.712 1718.3 38.048C1718.07 38.384 1717.74 38.65 1717.31 38.846C1716.89 39.0327 1716.4 39.126 1715.85 39.126Z" fill="#77798F"/>
</g>
<defs>
<filter id="filter0_i_25_603" x="0" y="0" width="1920" height="73" filterUnits="userSpaceOnUse" color-interpolation-filters="sRGB">
<feFlood flood-opacity="0" result="BackgroundImageFix"/>
<feBlend mode="normal" in="SourceGraphic" in2="BackgroundImageFix" result="shape"/>
<feColorMatrix in="SourceAlpha" type="matrix" values="0 0 0 0 0 0 0 0 0 0 0 0 0 0 0 0 0 0 127 0" result="hardAlpha"/>
<feOffset dy="4"/>
<feGaussianBlur stdDeviation="2"/>
<feComposite in2="hardAlpha" operator="arithmetic" k2="-1" k3="1"/>
<feColorMatrix type="matrix" values="0 0 0 0 0.4 0 0 0 0 0.2 0 0 0 0 0.933333 0 0 0 1 0"/>
<feBlend mode="normal" in2="shape" result="effect1_innerShadow_25_603"/>
</filter>
</defs>
</svg>
