<svg width="168" height="120" viewBox="0 0 168 120" fill="none" xmlns="http://www.w3.org/2000/svg">
<path d="M53.8568 22.408H43.8728V26.824C44.2994 26.3547 44.8968 25.9707 45.6648 25.672C46.4328 25.3733 47.2648 25.224 48.1608 25.224C49.7608 25.224 51.0834 25.5867 52.1287 26.312C53.1954 27.0373 53.9741 27.976 54.4648 29.128C54.9554 30.28 55.2008 31.528 55.2008 32.872C55.2008 35.368 54.4968 37.352 53.0888 38.824C51.6808 40.2747 49.6968 41 47.1368 41C45.4301 41 43.9474 40.712 42.6888 40.136C41.4301 39.5387 40.4594 38.7173 39.7768 37.672C39.0941 36.6267 38.7208 35.4213 38.6568 34.056H44.0008C44.1288 34.7173 44.4381 35.272 44.9288 35.72C45.4194 36.1467 46.0914 36.36 46.9448 36.36C47.9474 36.36 48.6941 36.04 49.1848 35.4C49.6754 34.76 49.9208 33.9067 49.9208 32.84C49.9208 31.7947 49.6648 30.9947 49.1528 30.44C48.6408 29.8853 47.8941 29.608 46.9128 29.608C46.1874 29.608 45.5901 29.7893 45.1208 30.152C44.6514 30.4933 44.3421 30.952 44.1927 31.528H38.9128V17.608H53.8568V22.408ZM69.7733 23.944C69.6026 23.1547 69.3039 22.568 68.8773 22.184C68.4506 21.7787 67.8426 21.576 67.0533 21.576C65.8373 21.576 64.9626 22.1093 64.4293 23.176C63.8959 24.2213 63.6186 25.8853 63.5973 28.168C64.0666 27.4213 64.7386 26.8347 65.6133 26.408C66.5093 25.9813 67.4906 25.768 68.5573 25.768C70.6479 25.768 72.3226 26.4293 73.5813 27.752C74.8613 29.0747 75.5013 30.92 75.5013 33.288C75.5013 34.8453 75.1813 36.2107 74.5413 37.384C73.9226 38.5573 73.0053 39.4747 71.7893 40.136C70.5946 40.7973 69.1759 41.128 67.5333 41.128C64.2479 41.128 61.9653 40.104 60.6853 38.056C59.4053 35.9867 58.7653 33.0213 58.7653 29.16C58.7653 25.1067 59.4373 22.0987 60.7812 20.136C62.1466 18.152 64.3226 17.16 67.3093 17.16C68.9093 17.16 70.2533 17.48 71.3413 18.12C72.4506 18.7387 73.2826 19.56 73.8373 20.584C74.4133 21.608 74.7546 22.728 74.8612 23.944H69.7733ZM67.2453 30.088C66.3279 30.088 65.5599 30.3653 64.9413 30.92C64.3439 31.4533 64.0453 32.2213 64.0453 33.224C64.0453 34.248 64.3226 35.048 64.8773 35.624C65.4533 36.2 66.2639 36.488 67.3093 36.488C68.2479 36.488 68.9839 36.2107 69.5173 35.656C70.0719 35.08 70.3493 34.3013 70.3493 33.32C70.3493 32.3173 70.0826 31.528 69.5493 30.952C69.0159 30.376 68.2479 30.088 67.2453 30.088ZM78.5963 29C78.5963 25.3307 79.3003 22.44 80.7083 20.328C82.1376 18.216 84.4309 17.16 87.5883 17.16C90.7456 17.16 93.0283 18.216 94.4363 20.328C95.8656 22.44 96.5803 25.3307 96.5803 29C96.5803 32.712 95.8656 35.624 94.4363 37.736C93.0283 39.848 90.7456 40.904 87.5883 40.904C84.4309 40.904 82.1376 39.848 80.7083 37.736C79.3003 35.624 78.5963 32.712 78.5963 29ZM91.2043 29C91.2043 26.8453 90.9696 25.192 90.5003 24.04C90.0309 22.8667 89.0603 22.28 87.5883 22.28C86.1163 22.28 85.1456 22.8667 84.6763 24.04C84.2069 25.192 83.9723 26.8453 83.9723 29C83.9723 30.4507 84.0576 31.656 84.2283 32.616C84.3989 33.5547 84.7403 34.3227 85.2523 34.92C85.7856 35.496 86.5643 35.784 87.5883 35.784C88.6123 35.784 89.3803 35.496 89.8923 34.92C90.4256 34.3227 90.7776 33.5547 90.9483 32.616C91.1189 31.656 91.2043 30.4507 91.2043 29Z" fill="white"/>
<path d="M43.0125 96.224H48.8685V98H40.8285V81.272H43.0125V96.224ZM52.3158 82.712C51.8998 82.712 51.5478 82.568 51.2598 82.28C50.9718 81.992 50.8278 81.64 50.8278 81.224C50.8278 80.808 50.9718 80.456 51.2598 80.168C51.5478 79.88 51.8998 79.736 52.3158 79.736C52.7158 79.736 53.0518 79.88 53.3238 80.168C53.6118 80.456 53.7558 80.808 53.7558 81.224C53.7558 81.64 53.6118 81.992 53.3238 82.28C53.0518 82.568 52.7158 82.712 52.3158 82.712ZM53.3718 84.848V98H51.1878V84.848H53.3718ZM64.4381 98L59.2781 92.192V98H57.0941V80.24H59.2781V90.68L64.3421 84.848H67.3901L61.1981 91.4L67.4141 98H64.4381ZM81.4457 90.92C81.4457 91.336 81.4217 91.776 81.3737 92.24H70.8617C70.9417 93.536 71.3817 94.552 72.1817 95.288C72.9977 96.008 73.9817 96.368 75.1337 96.368C76.0777 96.368 76.8617 96.152 77.4857 95.72C78.1257 95.272 78.5737 94.68 78.8297 93.944H81.1817C80.8297 95.208 80.1257 96.24 79.0697 97.04C78.0137 97.824 76.7017 98.216 75.1337 98.216C73.8857 98.216 72.7657 97.936 71.7737 97.376C70.7977 96.816 70.0297 96.024 69.4697 95C68.9097 93.96 68.6297 92.76 68.6297 91.4C68.6297 90.04 68.9017 88.848 69.4457 87.824C69.9897 86.8 70.7497 86.016 71.7257 85.472C72.7177 84.912 73.8537 84.632 75.1337 84.632C76.3817 84.632 77.4857 84.904 78.4457 85.448C79.4057 85.992 80.1417 86.744 80.6537 87.704C81.1817 88.648 81.4457 89.72 81.4457 90.92ZM79.1897 90.464C79.1897 89.632 79.0057 88.92 78.6377 88.328C78.2697 87.72 77.7657 87.264 77.1257 86.96C76.5017 86.64 75.8057 86.48 75.0377 86.48C73.9337 86.48 72.9897 86.832 72.2057 87.536C71.4377 88.24 70.9977 89.216 70.8857 90.464H79.1897ZM88.9845 98.216C87.9765 98.216 87.0725 98.048 86.2725 97.712C85.4725 97.36 84.8405 96.88 84.3765 96.272C83.9125 95.648 83.6565 94.936 83.6085 94.136H85.8645C85.9285 94.792 86.2325 95.328 86.7765 95.744C87.3365 96.16 88.0645 96.368 88.9605 96.368C89.7925 96.368 90.4485 96.184 90.9285 95.816C91.4085 95.448 91.6485 94.984 91.6485 94.424C91.6485 93.848 91.3925 93.424 90.8805 93.152C90.3685 92.864 89.5765 92.584 88.5045 92.312C87.5285 92.056 86.7285 91.8 86.1045 91.544C85.4965 91.272 84.9685 90.88 84.5205 90.368C84.0885 89.84 83.8725 89.152 83.8725 88.304C83.8725 87.632 84.0725 87.016 84.4725 86.456C84.8725 85.896 85.4405 85.456 86.1765 85.136C86.9125 84.8 87.7525 84.632 88.6965 84.632C90.1525 84.632 91.3285 85 92.2245 85.736C93.1205 86.472 93.6005 87.48 93.6645 88.76H91.4805C91.4325 88.072 91.1525 87.52 90.6405 87.104C90.1445 86.688 89.4725 86.48 88.6245 86.48C87.8405 86.48 87.2165 86.648 86.7525 86.984C86.2885 87.32 86.0565 87.76 86.0565 88.304C86.0565 88.736 86.1925 89.096 86.4645 89.384C86.7525 89.656 87.1045 89.88 87.5205 90.056C87.9525 90.216 88.5445 90.4 89.2965 90.608C90.2405 90.864 91.0085 91.12 91.6005 91.376C92.1925 91.616 92.6965 91.984 93.1125 92.48C93.5445 92.976 93.7685 93.624 93.7845 94.424C93.7845 95.144 93.5845 95.792 93.1845 96.368C92.7845 96.944 92.2165 97.4 91.4805 97.736C90.7605 98.056 89.9285 98.216 88.9845 98.216Z" fill="white"/>
</svg>
